<svg viewBox="0 0 1700 221" xmlns="http://www.w3.org/2000/svg" xml:space="preserve" style="fill-rule:evenodd;clip-rule:evenodd;stroke-linejoin:round;stroke-miterlimit:2"><path d="M2836.15 1444.05c26.03 0 47.5 6.76 64.43 20.27 16.93 13.52 27.29 31.4 31.08 53.63h-17.81c-3.04-18.19-11.63-32.59-25.77-43.2-14.15-10.62-31.59-15.92-52.31-15.92-14.9 0-28.55 3.28-40.93 9.85-12.38 6.57-22.36 16.68-29.94 30.32-7.58 13.64-11.37 30.45-11.37 50.41 0 19.96 3.79 36.76 11.37 50.4 7.58 13.65 17.56 23.75 29.94 30.32 12.38 6.57 26.03 9.86 40.93 9.86 20.72 0 38.16-5.31 52.31-15.92 14.14-10.61 22.73-25.02 25.77-43.21h17.81c-3.79 22.49-14.15 40.49-31.08 54.01-16.93 13.52-38.4 20.27-64.43 20.27-19.45 0-36.7-4.23-51.73-12.69-15.03-8.47-26.84-20.66-35.43-36.57-8.6-15.92-12.89-34.75-12.89-56.47 0-21.48 4.29-40.18 12.89-56.09 8.59-15.92 20.4-28.11 35.43-36.58 15.03-8.46 32.28-12.69 51.73-12.69ZM2954.02 1637.71h119v14.78h-137.57v-14.4l114.45-176.61h-111.04v-14.78h130.37v14.02l-115.21 176.99ZM3176.11 1640.74c20.71 0 38.15-5.24 52.3-15.72 14.15-10.49 22.74-24.83 25.77-43.02h17.81c-3.79 21.98-14.09 39.67-30.89 53.06s-38.21 20.08-64.24 20.08c-19.45 0-36.7-4.23-51.73-12.69-15.03-8.47-26.84-20.66-35.43-36.57-8.59-15.92-12.89-34.75-12.89-56.47 0-21.48 4.3-40.18 12.89-56.09 8.59-15.92 20.4-28.11 35.43-36.58 15.03-8.46 32.28-12.69 51.73-12.69 19.96 0 37.21 4.23 51.74 12.69 14.52 8.47 25.51 19.59 32.97 33.36 7.45 13.77 11.18 28.48 11.18 44.15 0 6.31-.63 13.01-1.9 20.08h-176.98c.25 19.21 4.23 35.31 11.93 48.32 7.71 13.02 17.69 22.62 29.94 28.81 12.26 6.19 25.71 9.28 40.37 9.28Zm.75-182.67c-14.9 0-28.55 3.16-40.93 9.48-12.38 6.31-22.42 15.91-30.13 28.8-7.7 12.88-11.68 28.8-11.93 47.75h162.2c1.01-18.95-2.14-34.93-9.47-47.94-7.33-13.01-17.18-22.61-29.56-28.8-12.38-6.19-25.78-9.29-40.18-9.29ZM3386.44 1444.05c26.03 0 47.5 6.76 64.43 20.27 16.93 13.52 27.29 31.4 31.08 53.63h-17.81c-3.03-18.19-11.63-32.59-25.77-43.2-14.15-10.62-31.59-15.92-52.3-15.92-14.91 0-28.56 3.28-40.93 9.85-12.39 6.57-22.37 16.68-29.94 30.32-7.58 13.64-11.37 30.45-11.37 50.41 0 19.96 3.79 36.76 11.37 50.4 7.57 13.65 17.55 23.75 29.94 30.32 12.37 6.57 26.02 9.86 40.93 9.86 20.71 0 38.15-5.31 52.3-15.92 14.14-10.61 22.74-25.02 25.77-43.21h17.81c-3.79 22.49-14.15 40.49-31.08 54.01-16.93 13.52-38.4 20.27-64.43 20.27-19.45 0-36.69-4.23-51.73-12.69-15.03-8.47-26.84-20.66-35.43-36.57-8.59-15.92-12.89-34.75-12.89-56.47 0-21.48 4.3-40.18 12.89-56.09 8.59-15.92 20.4-28.11 35.43-36.58 15.04-8.46 32.28-12.69 51.73-12.69ZM3600.95 1442.53c24.26 0 43.96 7.58 59.12 22.74 15.16 15.16 22.74 37.52 22.74 67.08v120.14h-17.05v-119.38c0-24.76-6.19-43.65-18.57-56.66-12.38-13.01-29.31-19.52-50.79-19.52-22.23 0-40.11 7.27-53.62 21.8-13.52 14.52-20.28 35.94-20.28 64.23v109.53h-17.05v-280.45h17.05v128.86c5.05-19.21 14.72-33.73 28.99-43.59 14.28-9.85 30.77-14.78 49.46-14.78ZM3803.33 1589.2l45.86-148.18h68.97l-75.03 211.47h-80.35l-75.04-211.47h68.98l46.61 148.18Z" style="fill:#19233c;fill-rule:nonzero" transform="translate(-1961.901 -966.147) scale(.71704)"/><path d="M3910.96 1381.52c0-9.86 3.54-18.01 10.62-24.45 7.07-6.44 16.42-9.66 28.04-9.66 11.62 0 20.97 3.22 28.05 9.66 7.07 6.44 10.61 14.59 10.61 24.45 0 9.6-3.54 17.62-10.61 24.06-7.08 6.44-16.43 9.67-28.05 9.67-11.62 0-20.97-3.23-28.04-9.67-7.08-6.44-10.62-14.46-10.62-24.06Zm70.88 59.5v211.47h-64.81v-211.47h64.81Z" style="fill:#19233c;fill-rule:nonzero" transform="translate(-1961.901 -966.147) scale(.71704)"/><path d="M4391.14 1441.02v211.47h-65.18v-38.28c-6.07 12.38-15.1 22.24-27.1 29.57-12 7.32-25.96 10.99-41.88 10.99-24.25 0-43.52-8.09-57.79-24.26-14.28-16.17-21.42-38.4-21.42-66.7v-122.79h64.43v114.83c0 14.4 3.73 25.58 11.18 33.54 7.45 7.96 17.5 11.94 30.13 11.94 13.14 0 23.5-4.17 31.08-12.51 7.58-8.34 11.37-20.21 11.37-35.62v-112.18h65.18Z" style="fill:#19233c;fill-rule:nonzero" transform="translate(-1745.071 -966.147) scale(.71704)"/><path d="M4488.16 1438.36c16.17 0 30.07 3.67 41.69 10.99 11.63 7.33 20.22 17.31 25.77 29.94v-38.27h64.43v211.47h-64.43v-38.28c-5.55 12.64-14.14 22.62-25.77 29.94-11.62 7.33-25.52 10.99-41.69 10.99-17.43 0-33.03-4.35-46.8-13.07-13.77-8.72-24.63-21.29-32.59-37.71-7.96-16.42-11.94-35.62-11.94-57.61 0-22.23 3.98-41.49 11.94-57.79 7.96-16.3 18.82-28.81 32.59-37.52 13.77-8.72 29.37-13.08 46.8-13.08Zm20.85 56.85c-13.9 0-25.08 4.55-33.54 13.65-8.47 9.09-12.7 21.72-12.7 37.89s4.23 28.81 12.7 37.9c8.46 9.1 19.64 13.65 33.54 13.65 13.64 0 24.82-4.68 33.54-14.03 8.72-9.35 13.07-21.85 13.07-37.52 0-15.91-4.35-28.48-13.07-37.71-8.72-9.22-19.9-13.83-33.54-13.83Z" style="fill:#19233c;fill-rule:nonzero" transform="translate(-1749.148 -966.147) scale(.71704)"/><path style="fill:#19233c;fill-rule:nonzero" d="M4636.73 1372.04h64.807v280.451h-64.807z" transform="translate(-1749.623 -966.147) scale(.71704)"/><path d="M222.238 397.508c0-23.389 3.744-45.911 10.666-66.997 28.179-85.84 109.014-147.898 204.228-147.898H1649.21c95.21 0 176.05 62.058 204.22 147.898 6.93 21.086 10.67 43.608 10.67 66.997h-130.13c0-36.977-30.02-66.997-67-66.997H437.132c-36.976 0-66.996 30.02-66.996 66.997 0 36.976 30.02 66.997 66.996 66.997H1649.21c5.98 0 11.9.245 17.76.725 57.51 4.716 108.64 32.116 144.4 73.223 32.84 37.742 52.73 87.04 52.73 140.946 0 23.389-3.74 45.911-10.67 66.997-28.17 85.84-109.01 147.898-204.22 147.898H437.132c-95.214 0-176.049-62.058-204.228-147.898-6.922-21.086-10.666-43.608-10.666-66.997h147.898c0 36.977 30.02 66.997 66.996 66.997H1666.97c36.98 0 67-30.02 67-66.997 0-36.976-30.02-66.997-67-66.997v-.725c-5.86.48-11.78.725-17.76.725H437.132c-64.697 0-122.754-28.652-162.165-73.949-32.837-37.741-52.729-87.039-52.729-140.945Z" style="fill:#19233c" transform="matrix(.21747 0 0 .21747 845.994 25.507)"/><path d="M3910.96 1381.52c0-9.86 3.54-18.01 10.62-24.45 7.07-6.44 16.42-9.66 28.04-9.66 11.62 0 20.97 3.22 28.05 9.66 7.07 6.44 10.61 14.59 10.61 24.45 0 9.6-3.54 17.62-10.61 24.06-7.08 6.44-16.43 9.67-28.05 9.67-11.62 0-20.97-3.23-28.04-9.67-7.08-6.44-10.62-14.46-10.62-24.06Z" style="fill:#c3f132;fill-rule:nonzero" transform="translate(-1159.979 -794.128) scale(.71704)"/></svg>