<svg xmlns="http://www.w3.org/2000/svg" xml:space="preserve" style="fill-rule:evenodd;clip-rule:evenodd;stroke-linejoin:round;stroke-miterlimit:2" viewBox="0 0 1526 245"><path d="M3910.96 1381.52c0-9.86 3.54-18.01 10.62-24.45 7.07-6.44 16.42-9.66 28.04-9.66 11.62 0 20.97 3.22 28.05 9.66 7.07 6.44 10.61 14.59 10.61 24.45 0 9.6-3.54 17.62-10.61 24.06-7.08 6.44-16.43 9.67-28.05 9.67-11.62 0-20.97-3.23-28.04-9.67-7.08-6.44-10.62-14.46-10.62-24.06Z" style="fill:#c3f132;fill-rule:nonzero" transform="matrix(.641 0 0 .641 -1344.17 -722.95)"/><path d="M910.49 261.65c2.2 0 4.1.5 5.68 1.5a8.7 8.7 0 0 1 3.45 4.08v-14.6h8.83v38.18h-8.83v-5.21a8.7 8.7 0 0 1-3.45 4.07c-1.59 1-3.48 1.5-5.68 1.5-2.37 0-4.5-.6-6.37-1.78a12.18 12.18 0 0 1-4.44-5.14 17.8 17.8 0 0 1-1.63-7.84c0-3.03.55-5.65 1.63-7.87a12.2 12.2 0 0 1 4.44-5.1c1.87-1.2 4-1.79 6.37-1.79Zm2.84 7.74c-1.9 0-3.42.62-4.57 1.86-1.15 1.24-1.73 2.96-1.73 5.16s.58 3.92 1.73 5.16a5.94 5.94 0 0 0 4.57 1.86c1.86 0 3.38-.64 4.56-1.91 1.2-1.27 1.78-2.98 1.78-5.11 0-2.17-.59-3.88-1.77-5.13a6 6 0 0 0-4.57-1.89Zm44.68 6.25c0 .72-.08 1.51-.25 2.37h-19.97c.1 2.17.65 3.72 1.65 4.67 1 .95 2.27 1.42 3.82 1.42 1.3 0 2.39-.33 3.25-.98a4.57 4.57 0 0 0 1.7-2.53h9.34a12.21 12.21 0 0 1-2.48 5.44 13.2 13.2 0 0 1-4.85 3.77 15.36 15.36 0 0 1-6.55 1.37c-2.82 0-5.32-.6-7.5-1.78a12.73 12.73 0 0 1-5.14-5.14 15.93 15.93 0 0 1-1.86-7.84c0-3.03.61-5.65 1.83-7.87a12.54 12.54 0 0 1 5.14-5.1 15.62 15.62 0 0 1 7.53-1.79c2.86 0 5.37.59 7.53 1.76a12.4 12.4 0 0 1 5.03 4.92 14.66 14.66 0 0 1 1.78 7.3Zm-8.92-1.34c.03-1.9-.48-3.32-1.52-4.26a5.6 5.6 0 0 0-3.9-1.42c-1.62 0-2.96.48-4.02 1.44-1.07.97-1.67 2.38-1.81 4.24h11.25Zm22.96 7.89 6.24-20.18h9.4l-10.22 28.8h-10.94L956.3 262h9.4l6.34 20.18Zm42.78-6.55c0 .72-.09 1.51-.26 2.37H994.6c.1 2.17.65 3.72 1.65 4.67 1 .95 2.27 1.42 3.82 1.42a5.2 5.2 0 0 0 3.25-.98 4.54 4.54 0 0 0 1.7-2.53h9.34a12.15 12.15 0 0 1-2.48 5.44 13.1 13.1 0 0 1-4.85 3.77 15.33 15.33 0 0 1-6.55 1.37c-2.82 0-5.32-.6-7.5-1.78a12.73 12.73 0 0 1-5.14-5.14 15.93 15.93 0 0 1-1.86-7.84c0-3.03.61-5.65 1.83-7.87a12.55 12.55 0 0 1 5.14-5.1 15.62 15.62 0 0 1 7.53-1.79c2.86 0 5.37.59 7.53 1.76a12.41 12.41 0 0 1 5.04 4.92 14.74 14.74 0 0 1 1.78 7.3Zm-8.93-1.34c.03-1.9-.47-3.32-1.52-4.26a5.61 5.61 0 0 0-3.9-1.42c-1.62 0-2.96.48-4.02 1.44-1.07.97-1.67 2.38-1.81 4.24h11.25Zm18.47-21.68v38.19h-8.82v-38.19h8.82Zm102.29 9.03c2.38 0 4.5.6 6.38 1.78a12.2 12.2 0 0 1 4.43 5.11 17.67 17.67 0 0 1 1.63 7.87c0 3-.54 5.6-1.63 7.84a12.18 12.18 0 0 1-4.43 5.14c-1.88 1.18-4 1.78-6.38 1.78-2.2 0-4.09-.5-5.67-1.5a8.64 8.64 0 0 1-3.46-4.07v18.93h-8.82v-42.52h8.82v5.22a8.64 8.64 0 0 1 3.46-4.08c1.58-1 3.47-1.5 5.67-1.5Zm-2.83 7.74a6 6 0 0 0-4.57 1.89c-1.19 1.25-1.78 2.96-1.78 5.13 0 2.13.59 3.84 1.78 5.1a5.96 5.96 0 0 0 4.57 1.92c1.89 0 3.41-.62 4.56-1.86 1.15-1.24 1.73-2.96 1.73-5.16s-.58-3.92-1.73-5.16a5.93 5.93 0 0 0-4.56-1.86Zm-16.12 7.02c0 8.14-6.62 14.76-14.76 14.76h-52.1a14.76 14.76 0 0 1 0-29.52h52.1c8.14 0 14.76 6.62 14.76 14.76Zm-8.98 0a7.4 7.4 0 0 0-7.39-7.4h-48.93a7.4 7.4 0 0 0 0 14.8h48.93a7.4 7.4 0 0 0 7.39-7.4Z" style="fill:#19233c" transform="translate(-4234.2 -1191.08) scale(4.715)"/><path d="M198.56 521.53V540h-9.27c-7.63 0-13.33-3.08-17.1-9.24-3.77-6.15-5.66-16.47-5.66-30.93v-68.34h-11.17v-18.24h11.17v-31.62h12.54v31.63h19.35v18.23h-19.35v68.8c0 8.16.88 13.74 2.66 16.74 1.77 3 4.83 4.5 9.2 4.5h7.63Zm54.51-110.35c8.72 0 15.76 4.73 21.12 14.2 5.36 9.46 8.04 23.12 8.04 40.97V540h-12.4v-71.8c0-12.62-1.9-22.32-5.72-29.09s-9-10.16-15.54-10.16c-6.81 0-12.26 3.74-16.35 11.2-4.1 7.47-6.14 18.35-6.14 32.67V540h-12.4V369.16h12.4v74.1c1.91-10.3 5.3-18.23 10.16-23.77 4.86-5.54 10.47-8.31 16.83-8.31Zm117.06 58.4c0 4.47-.18 8.32-.55 11.55h-59.82c.27 14.47 2.7 25.32 7.29 32.55 4.59 7.23 10.2 10.85 16.83 10.85 6 0 11.02-2.58 15.06-7.73 4.04-5.16 6.52-12.05 7.43-20.67h13.21c-.9 8.78-2.93 16.63-6.06 23.55-3.13 6.93-7.2 12.31-12.2 16.16a26.98 26.98 0 0 1-16.9 5.77c-7.17 0-13.53-2.61-19.07-7.85-5.55-5.23-9.88-12.73-13.02-22.5-3.13-9.78-4.7-21.28-4.7-34.52 0-13.23 1.57-24.78 4.7-34.63 3.14-9.85 7.47-17.39 13.02-22.62 5.54-5.23 11.9-7.85 19.07-7.85 7.27 0 13.61 2.62 19.02 7.85 5.4 5.23 9.54 12.23 12.4 21 2.86 8.78 4.29 18.48 4.29 29.1Zm-12.54 1.39c.28-9.39-.63-17.24-2.72-23.55-2.1-6.3-4.95-11-8.59-14.08-3.63-3.08-7.58-4.62-11.85-4.62-6.82 0-12.54 3.58-17.18 10.74-4.63 7.16-7.13 17.66-7.5 31.51h47.84Zm120.74-59.79c8.73 0 15.74 4.73 21.06 14.2 5.31 9.46 7.97 23.12 7.97 40.97V540h-12.4v-71.8c0-12.47-1.8-22-5.38-28.63-3.6-6.62-8.52-9.92-14.79-9.92-6.54 0-11.79 3.65-15.74 10.96-3.95 7.31-5.93 18.05-5.93 32.2V540h-12.4v-71.8c0-12.47-1.82-22-5.45-28.63-3.63-6.62-8.54-9.92-14.72-9.92-6.63 0-11.92 3.65-15.87 10.96-3.96 7.31-5.93 18.05-5.93 32.2V540h-12.4V413.25h12.4v28.86c1.81-10 5.06-17.66 9.74-22.97 4.68-5.3 10.06-7.96 16.15-7.96 6.36 0 11.88 2.73 16.56 8.2 4.68 5.46 8.02 13.5 10.01 24.12 2.1-10.31 5.6-18.28 10.5-23.9 4.9-5.61 10.45-8.42 16.62-8.42Zm117.07 58.4c0 4.47-.18 8.32-.55 11.55h-59.82c.27 14.47 2.7 25.32 7.29 32.55 4.58 7.23 10.2 10.85 16.83 10.85 6 0 11.01-2.58 15.06-7.73 4.04-5.16 6.51-12.05 7.42-20.67h13.22c-.9 8.78-2.93 16.63-6.06 23.55-3.14 6.93-7.2 12.31-12.2 16.16a26.99 26.99 0 0 1-16.9 5.77c-7.18 0-13.54-2.61-19.08-7.85-5.54-5.23-9.88-12.73-13.01-22.5-3.14-9.78-4.7-21.28-4.7-34.52 0-13.23 1.56-24.78 4.7-34.63 3.13-9.85 7.47-17.39 13.01-22.62s11.9-7.85 19.08-7.85c7.27 0 13.6 2.62 19.01 7.85 5.4 5.23 9.54 12.23 12.4 21 2.87 8.78 4.3 18.48 4.3 29.1Zm-12.54 1.39c.27-9.39-.64-17.24-2.73-23.55-2.09-6.3-4.95-11-8.58-14.08-3.64-3.08-7.59-4.62-11.86-4.62-6.81 0-12.54 3.58-17.17 10.74-4.63 7.16-7.13 17.66-7.5 31.51h47.84Z" style="fill:#19233c;fill-rule:nonzero" transform="matrix(.622 0 0 .367 1155.39 -14.86)"/></svg>