<svg xmlns="http://www.w3.org/2000/svg" xml:space="preserve" style="fill-rule:evenodd;clip-rule:evenodd;stroke-linejoin:round;stroke-miterlimit:2" viewBox="0 0 592 213">
    <path id="claim" d="M1015.57 1486.14v3.82a11.71 11.71 0 0 0-6.57-1.8c-1.83 0-3.28.43-4.36 1.28a4.08 4.08 0 0 0-1.62 3.35c0 .72.14 1.37.43 1.94.28.57.78 1.1 1.5 1.59.72.5 1.34.87 1.85 1.13.51.25 1.3.62 2.38 1.1 1.02.45 1.8.8 2.34 1.06.54.25 1.23.66 2.09 1.21a8.8 8.8 0 0 1 1.93 1.62c.44.52.83 1.21 1.17 2.07.35.85.52 1.78.52 2.77 0 2.66-.91 4.73-2.74 6.18-1.83 1.45-4.19 2.18-7.06 2.18-3.18 0-5.88-.64-8.1-1.93v-3.92a12.93 12.93 0 0 0 8.01 2.48c1.88 0 3.37-.42 4.45-1.26a4.34 4.34 0 0 0 1.62-3.64c0-.67-.13-1.26-.39-1.78a3.84 3.84 0 0 0-1.26-1.44c-.58-.44-1.13-.79-1.66-1.08a47.03 47.03 0 0 0-2.95-1.42 48.66 48.66 0 0 1-2.94-1.39c-.68-.36-1.47-.89-2.38-1.6a6.33 6.33 0 0 1-2-2.45 7.82 7.82 0 0 1-.63-3.24 7.3 7.3 0 0 1 2.76-6.05 10.91 10.91 0 0 1 6.95-2.18c2.61 0 4.83.47 6.66 1.4Zm17 11.15v-3.55c1.71-1.05 3.95-1.58 6.74-1.58 5.73 0 8.59 2.91 8.59 8.73v14.44h-3.51v-2.7c-1.17 1.95-3.29 2.92-6.38 2.92a7.1 7.1 0 0 1-5.15-1.89 6.33 6.33 0 0 1-1.96-4.77c0-2.19.83-3.89 2.5-5.1 1.66-1.21 3.93-1.82 6.81-1.82h4.14v-1.17c0-1.8-.41-3.16-1.22-4.07-.8-.92-2.17-1.37-4.09-1.37-2.43 0-4.59.64-6.47 1.93Zm11.78 7.51h-3.96c-1.92 0-3.36.38-4.32 1.13a3.43 3.43 0 0 0-1.44 2.83c0 1.14.38 2.06 1.13 2.77.75.7 1.84 1.05 3.28 1.05a5.4 5.4 0 0 0 3.87-1.37 4.6 4.6 0 0 0 1.44-3.48v-2.93Zm22.35-12.28v4.01c1.2-2.82 3.27-4.23 6.21-4.23.54 0 .96.03 1.26.09v3.51a6.12 6.12 0 0 0-1.94-.32c-1.59 0-2.9.74-3.95 2.21a8.51 8.51 0 0 0-1.58 5.08v12.46h-3.55l.04-22.81h3.51Zm29.42 23.21c-3.27 0-5.86-1.1-7.76-3.31-1.91-2.2-2.86-4.98-2.86-8.34 0-3.39.98-6.21 2.95-8.48a9.67 9.67 0 0 1 7.67-3.39c3.44 0 6.1 1.11 7.98 3.33 1.87 2.22 2.81 5.03 2.81 8.45 0 3.39-.96 6.19-2.88 8.41-1.92 2.22-4.56 3.33-7.91 3.33Zm0-20.37c-2.16 0-3.86.84-5.09 2.52a10.13 10.13 0 0 0-1.84 6.16c0 2.37.63 4.38 1.89 6.05a6.01 6.01 0 0 0 5.04 2.49c2.27 0 4.03-.81 5.26-2.45a9.82 9.82 0 0 0 1.84-6.09c0-2.52-.58-4.6-1.75-6.23-1.17-1.64-2.96-2.45-5.35-2.45Zm25.18 19.97v-31.8h3.55v31.8h-3.55Zm19.47 0v-22.81h3.56v22.81h-3.56Zm.09-28.29a2.35 2.35 0 0 1-.62-1.67 2.27 2.27 0 0 1 2.29-2.34c.66 0 1.21.23 1.66.68.45.45.68 1 .68 1.66 0 .66-.23 1.21-.68 1.64-.45.44-1 .66-1.66.66-.66 0-1.22-.21-1.67-.63Zm67.42 28.29h-4.81l-3.06-2.84c-2.43 2.13-5.56 3.19-9.4 3.19-3.39 0-6.12-.77-8.21-2.31a7.1 7.1 0 0 1-3.12-5.96c0-3.39 2.37-5.98 7.1-7.78a22.5 22.5 0 0 1-3.1-4.07 7.6 7.6 0 0 1-.99-3.76c0-2.24.76-4.06 2.29-5.44 1.53-1.38 3.57-2.07 6.12-2.07 2.55 0 4.6.75 6.16 2.23a7.35 7.35 0 0 1 2.34 5.55 7.3 7.3 0 0 1-1.64 4.64c-1.09 1.38-2.93 2.67-5.51 3.86l7.6 7.11a10.75 10.75 0 0 0 1.26-4.41h3.42c-.18 2.58-.9 4.83-2.16 6.75l5.71 5.31Zm-17.22-27.8c-1.35 0-2.47.38-3.36 1.15a3.97 3.97 0 0 0-1.32 3.17c0 .96.28 1.91.83 2.85.56.95 1.55 2.16 2.99 3.63a14.44 14.44 0 0 0 4.39-2.86 4.76 4.76 0 0 0 1.37-3.35c0-1.29-.42-2.38-1.26-3.26-.84-.89-2.06-1.33-3.64-1.33Zm-.14 24.87c2.82 0 5.16-.75 7.02-2.25l-3.69-3.44a6120.77 6120.77 0 0 0-5.22-4.83 12.92 12.92 0 0 0-4.27 2.38 4.18 4.18 0 0 0 .72 6.77 9.86 9.86 0 0 0 5.44 1.37Zm53.21-19.88v3.47a7.78 7.78 0 0 1 7.06-3.83c3.02 0 5.4 1.11 7.13 3.31 1.72 2.2 2.58 4.95 2.58 8.25 0 3.51-.91 6.38-2.72 8.62a8.68 8.68 0 0 1-7.08 3.34c-3 0-5.32-1.27-6.97-3.82v12.33h-3.51v-31.67h3.51Zm6.52 19.93c1.92 0 3.49-.76 4.72-2.27 1.23-1.52 1.84-3.67 1.84-6.46 0-2.49-.6-4.49-1.8-6.02a5.54 5.54 0 0 0-4.54-2.3c-1.83 0-3.41.67-4.74 2-1.34 1.34-2 3.52-2 6.55 0 2.91.67 5.05 2.02 6.43a6.18 6.18 0 0 0 4.5 2.07Zm24.96-15.16v-3.55c1.71-1.05 3.96-1.58 6.74-1.58 5.73 0 8.59 2.91 8.59 8.73v14.44h-3.5v-2.7c-1.17 1.95-3.3 2.92-6.39 2.92a7.1 7.1 0 0 1-5.15-1.89 6.37 6.37 0 0 1-1.96-4.77c0-2.19.84-3.89 2.5-5.1 1.66-1.21 3.94-1.82 6.81-1.82h4.14v-1.17c0-1.8-.4-3.16-1.21-4.07-.81-.92-2.18-1.37-4.1-1.37-2.43 0-4.58.64-6.47 1.93Zm11.78 7.51h-3.96c-1.92 0-3.35.38-4.31 1.13a3.43 3.43 0 0 0-1.44 2.83c0 1.14.37 2.06 1.12 2.77.75.7 1.84 1.05 3.28 1.05a5.4 5.4 0 0 0 3.87-1.37 4.6 4.6 0 0 0 1.44-3.48v-2.93Zm22.35-12.28v4.01c1.2-2.82 3.27-4.23 6.21-4.23.54 0 .96.03 1.26.09v3.51a6.1 6.1 0 0 0-1.93-.32c-1.59 0-2.91.74-3.96 2.21a8.51 8.51 0 0 0-1.58 5.08v12.46h-3.55l.05-22.81h3.5Zm25.05 2.88v13.36c0 2.43 1.14 3.64 3.42 3.64 1.17 0 2.21-.34 3.11-1.03v3.37c-.99.54-2.1.81-3.33.81-4.5 0-6.75-2.29-6.75-6.88v-13.27h-3.64v-2.88h3.64v-5.66h3.55v5.66h6.3v2.88h-6.3Zm24.2-2.88v3.96c1.35-2.85 3.75-4.27 7.2-4.27 2.21 0 3.98.67 5.3 2.02 1.32 1.35 1.98 3.15 1.98 5.4v15.7h-3.55v-14.76c0-1.68-.43-2.96-1.28-3.84a4.44 4.44 0 0 0-3.35-1.33c-1.71 0-3.19.66-4.43 1.98-1.25 1.32-1.87 3.15-1.87 5.49v12.46h-3.51v-22.81h3.51Zm46.41 18.31v3.33a13.75 13.75 0 0 1-6.47 1.39c-3.45 0-6.23-1.06-8.34-3.17-2.12-2.11-3.18-4.91-3.18-8.39 0-3.63.95-6.49 2.84-8.59a9.36 9.36 0 0 1 7.28-3.15c2.85 0 5.11.92 6.79 2.75 1.68 1.83 2.52 4.42 2.52 7.78 0 .96-.07 1.84-.22 2.65h-15.56c.27 2.25 1.12 3.97 2.56 5.17 1.44 1.2 3.33 1.8 5.67 1.8 2.55 0 4.59-.52 6.11-1.57Zm-2.11-8.37v-.9c0-1.89-.51-3.39-1.53-4.52a5.43 5.43 0 0 0-4.23-1.68c-1.71 0-3.16.61-4.36 1.84-1.2 1.23-1.9 2.98-2.11 5.26h12.23Zm25.46-12.28h-3.42l-5.71-7.01h3.59l3.87 4.72 3.78-4.72h3.6l-5.71 7.01Zm-4.01 2.34v4.01c1.2-2.82 3.27-4.23 6.21-4.23.54 0 .96.03 1.26.09v3.51a6.1 6.1 0 0 0-1.93-.32c-1.59 0-2.91.74-3.96 2.21a8.51 8.51 0 0 0-1.58 5.08v12.46h-3.55l.05-22.81h3.5Zm20.33 22.81v-22.81h3.55v22.81h-3.55Zm.09-28.29a2.36 2.36 0 0 1-.63-1.67c0-.66.22-1.21.65-1.66.44-.45.99-.68 1.65-.68.66 0 1.21.23 1.66.68.45.45.67 1 .67 1.66a2.28 2.28 0 0 1-2.33 2.3c-.66 0-1.22-.21-1.67-.63Z" style="fill:#5b329a" transform="translate(-857.99 -1311.44)"/>
    <path id="name" d="m1022.89 1363.7-18.16 31h27.18l15.18 25.9h-88.14l63.96-109.16 75.1 128.16-.23.39h-30.19l-44.7-76.29.14-.23h-.27l.13.23Zm75.12 75.9 29.43-50.24h-28.85a39.15 39.15 0 0 1-34.21-32.64 38.94 38.94 0 0 1 1.8-19.39 39.1 39.1 0 0 1 36.8-25.89h85.33c-9.51 6.16-17.51 15.1-23.19 25.89h-62.14a13.07 13.07 0 0 0 0 26.14h53.73a86.03 86.03 0 0 0 .21 25.89l.06.37-29.44 50.26h-29.3l-.23-.39Zm-224.85-25.51h44.56a9.7 9.7 0 0 0 5.84-17.43l-19.58-19.57a39.53 39.53 0 0 1-8.23-13.62v-.02a38.66 38.66 0 0 1-2.2-12.93 38.94 38.94 0 0 1 7.39-22.85 39.05 39.05 0 0 1 31.7-16.23h81.09l-15.17 25.89H934a9.7 9.7 0 0 0-6.94 16.46l.18.18 18.46 18.46a40.85 40.85 0 0 1 8.9 16.93 40.81 40.81 0 0 1-3.75 29.39l-1.23 2.11-.74 1.13a40.7 40.7 0 0 1-33.78 18h-57.12l15.18-25.9Zm301.46-76.76c6.54-10.23 15.64-18.12 26.18-22.38a47.86 47.86 0 0 1 18-3.51c18.08 0 34.14 10.18 44.18 25.89a68.38 68.38 0 0 1 8.46 19.39 74.52 74.52 0 0 1 2.45 18.99c0 4.69-.43 9.25-1.24 13.65a71.38 71.38 0 0 1-1.21 5.34 68.38 68.38 0 0 1-8.46 19.39 62.12 62.12 0 0 1-4.76 6.51c-10.01 11.96-23.98 19.39-39.42 19.39-15.44 0-29.41-7.43-39.42-19.39a62.12 62.12 0 0 1-4.76-6.51 68.38 68.38 0 0 1-8.46-19.39 71.38 71.38 0 0 1-2.41-16.51 74.52 74.52 0 0 1 2.41-21.47 68.38 68.38 0 0 1 8.46-19.39Zm44.18 0c-12.24 0-22.92 7.81-28.59 19.39a42.69 42.69 0 0 0-4.31 18.99 43.8 43.8 0 0 0 4.31 18.99c5.67 11.58 16.35 19.39 28.59 19.39 12.24 0 22.92-7.81 28.59-19.39a43.8 43.8 0 0 0 4.31-18.99c0-4.28-.6-8.39-1.71-12.24a41.74 41.74 0 0 0-2.6-6.75c-5.67-11.58-16.35-19.39-28.59-19.39Zm38.45 102.66 11.22-19.15.16-.24a72.33 72.33 0 0 0 4.32-7.41l59.48-101.51 15.83 27.02-44.17 75.39h88.35l15.17 25.9h-150.36Z" style="fill:#1a1a44" transform="translate(-857.99 -1311.44)"/>
    <path id="color" d="m1464.31 631.49 87.89 150h-64.5l-87.89-150h64.5Z" style="fill:#5b329a" transform="matrix(.51 0 0 .51 -200.1 -270.11)"/>
</svg>
