<svg width="100%" height="100%" viewBox="0 0 1700 221" version="1.1" xmlns="http://www.w3.org/2000/svg" xmlns:xlink="http://www.w3.org/1999/xlink" xml:space="preserve" xmlns:serif="http://www.serif.com/" style="fill-rule:evenodd;clip-rule:evenodd;stroke-linejoin:round;stroke-miterlimit:2;">
    <g transform="matrix(1,0,0,1,-1250.11,-1582.43)">
        <g transform="matrix(2.42233,0,0,2.42233,-225.438,215.796)">
            <g transform="matrix(1,0,0,1,0,69.7846)">
                <g transform="matrix(0.296013,0,0,0.296013,-200.779,95.5468)">
                    <path d="M2836.15,1444.05C2862.18,1444.05 2883.65,1450.81 2900.58,1464.32C2917.51,1477.84 2927.87,1495.72 2931.66,1517.95L2913.85,1517.95C2910.81,1499.76 2902.22,1485.36 2888.08,1474.75C2873.93,1464.13 2856.49,1458.83 2835.77,1458.83C2820.87,1458.83 2807.22,1462.11 2794.84,1468.68C2782.46,1475.25 2772.48,1485.36 2764.9,1499C2757.32,1512.64 2753.53,1529.45 2753.53,1549.41C2753.53,1569.37 2757.32,1586.17 2764.9,1599.81C2772.48,1613.46 2782.46,1623.56 2794.84,1630.13C2807.22,1636.7 2820.87,1639.99 2835.77,1639.99C2856.49,1639.99 2873.93,1634.68 2888.08,1624.07C2902.22,1613.46 2910.81,1599.05 2913.85,1580.86L2931.66,1580.86C2927.87,1603.35 2917.51,1621.35 2900.58,1634.87C2883.65,1648.39 2862.18,1655.14 2836.15,1655.14C2816.7,1655.14 2799.45,1650.91 2784.42,1642.45C2769.39,1633.98 2757.58,1621.79 2748.99,1605.88C2740.39,1589.96 2736.1,1571.13 2736.1,1549.41C2736.1,1527.93 2740.39,1509.23 2748.99,1493.32C2757.58,1477.4 2769.39,1465.21 2784.42,1456.74C2799.45,1448.28 2816.7,1444.05 2836.15,1444.05Z" style="fill:rgb(25,35,60);fill-rule:nonzero;"/>
                </g>
                <g transform="matrix(0.296013,0,0,0.296013,-200.779,95.5468)">
                    <path d="M2954.02,1637.71L3073.02,1637.71L3073.02,1652.49L2935.45,1652.49L2935.45,1638.09L3049.9,1461.48L2938.86,1461.48L2938.86,1446.7L3069.23,1446.7L3069.23,1460.72L2954.02,1637.71Z" style="fill:rgb(25,35,60);fill-rule:nonzero;"/>
                </g>
                <g transform="matrix(0.296013,0,0,0.296013,-200.779,95.5468)">
                    <path d="M3176.11,1640.74C3196.82,1640.74 3214.26,1635.5 3228.41,1625.02C3242.56,1614.53 3251.15,1600.19 3254.18,1582L3271.99,1582C3268.2,1603.98 3257.9,1621.67 3241.1,1635.06C3224.3,1648.45 3202.89,1655.14 3176.86,1655.14C3157.41,1655.14 3140.16,1650.91 3125.13,1642.45C3110.1,1633.98 3098.29,1621.79 3089.7,1605.88C3081.11,1589.96 3076.81,1571.13 3076.81,1549.41C3076.81,1527.93 3081.11,1509.23 3089.7,1493.32C3098.29,1477.4 3110.1,1465.21 3125.13,1456.74C3140.16,1448.28 3157.41,1444.05 3176.86,1444.05C3196.82,1444.05 3214.07,1448.28 3228.6,1456.74C3243.12,1465.21 3254.11,1476.33 3261.57,1490.1C3269.02,1503.87 3272.75,1518.58 3272.75,1534.25C3272.75,1540.56 3272.12,1547.26 3270.85,1554.33L3093.87,1554.33C3094.12,1573.54 3098.1,1589.64 3105.8,1602.65C3113.51,1615.67 3123.49,1625.27 3135.74,1631.46C3148,1637.65 3161.45,1640.74 3176.11,1640.74ZM3176.86,1458.07C3161.96,1458.07 3148.31,1461.23 3135.93,1467.55C3123.55,1473.86 3113.51,1483.46 3105.8,1496.35C3098.1,1509.23 3094.12,1525.15 3093.87,1544.1L3256.07,1544.1C3257.08,1525.15 3253.93,1509.17 3246.6,1496.16C3239.27,1483.15 3229.42,1473.55 3217.04,1467.36C3204.66,1461.17 3191.26,1458.07 3176.86,1458.07Z" style="fill:rgb(25,35,60);fill-rule:nonzero;"/>
                </g>
                <g transform="matrix(0.296013,0,0,0.296013,-200.779,95.5468)">
                    <path d="M3386.44,1444.05C3412.47,1444.05 3433.94,1450.81 3450.87,1464.32C3467.8,1477.84 3478.16,1495.72 3481.95,1517.95L3464.14,1517.95C3461.11,1499.76 3452.51,1485.36 3438.37,1474.75C3424.22,1464.13 3406.78,1458.83 3386.07,1458.83C3371.16,1458.83 3357.51,1462.11 3345.14,1468.68C3332.75,1475.25 3322.77,1485.36 3315.2,1499C3307.62,1512.64 3303.83,1529.45 3303.83,1549.41C3303.83,1569.37 3307.62,1586.17 3315.2,1599.81C3322.77,1613.46 3332.75,1623.56 3345.14,1630.13C3357.51,1636.7 3371.16,1639.99 3386.07,1639.99C3406.78,1639.99 3424.22,1634.68 3438.37,1624.07C3452.51,1613.46 3461.11,1599.05 3464.14,1580.86L3481.95,1580.86C3478.16,1603.35 3467.8,1621.35 3450.87,1634.87C3433.94,1648.39 3412.47,1655.14 3386.44,1655.14C3366.99,1655.14 3349.75,1650.91 3334.71,1642.45C3319.68,1633.98 3307.87,1621.79 3299.28,1605.88C3290.69,1589.96 3286.39,1571.13 3286.39,1549.41C3286.39,1527.93 3290.69,1509.23 3299.28,1493.32C3307.87,1477.4 3319.68,1465.21 3334.71,1456.74C3349.75,1448.28 3366.99,1444.05 3386.44,1444.05Z" style="fill:rgb(25,35,60);fill-rule:nonzero;"/>
                </g>
                <g transform="matrix(0.296013,0,0,0.296013,-200.779,95.5468)">
                    <path d="M3600.95,1442.53C3625.21,1442.53 3644.91,1450.11 3660.07,1465.27C3675.23,1480.43 3682.81,1502.79 3682.81,1532.35L3682.81,1652.49L3665.76,1652.49L3665.76,1533.11C3665.76,1508.35 3659.57,1489.46 3647.19,1476.45C3634.81,1463.44 3617.88,1456.93 3596.4,1456.93C3574.17,1456.93 3556.29,1464.2 3542.78,1478.73C3529.26,1493.25 3522.5,1514.67 3522.5,1542.96L3522.5,1652.49L3505.45,1652.49L3505.45,1372.04L3522.5,1372.04L3522.5,1500.9C3527.55,1481.69 3537.22,1467.17 3551.49,1457.31C3565.77,1447.46 3582.26,1442.53 3600.95,1442.53Z" style="fill:rgb(25,35,60);fill-rule:nonzero;"/>
                </g>
                <g transform="matrix(0.296013,0,0,0.296013,-200.779,95.5468)">
                    <path d="M3803.33,1589.2L3849.19,1441.02L3918.16,1441.02L3843.13,1652.49L3762.78,1652.49L3687.74,1441.02L3756.72,1441.02L3803.33,1589.2Z" style="fill:rgb(25,35,60);fill-rule:nonzero;"/>
                </g>
                <g transform="matrix(0.296013,0,0,0.296013,-200.779,95.5468)">
                    <path d="M3910.96,1381.52C3910.96,1371.66 3914.5,1363.51 3921.58,1357.07C3928.65,1350.63 3938,1347.41 3949.62,1347.41C3961.24,1347.41 3970.59,1350.63 3977.67,1357.07C3984.74,1363.51 3988.28,1371.66 3988.28,1381.52C3988.28,1391.12 3984.74,1399.14 3977.67,1405.58C3970.59,1412.02 3961.24,1415.25 3949.62,1415.25C3938,1415.25 3928.65,1412.02 3921.58,1405.58C3914.5,1399.14 3910.96,1391.12 3910.96,1381.52ZM3981.84,1441.02L3981.84,1652.49L3917.03,1652.49L3917.03,1441.02L3981.84,1441.02Z" style="fill:rgb(25,35,60);fill-rule:nonzero;"/>
                </g>
                <g transform="matrix(0.296013,0,0,0.296013,-111.266,95.5468)">
                    <path d="M4391.14,1441.02L4391.14,1652.49L4325.96,1652.49L4325.96,1614.21C4319.89,1626.59 4310.86,1636.45 4298.86,1643.78C4286.86,1651.1 4272.9,1654.77 4256.98,1654.77C4232.73,1654.77 4213.46,1646.68 4199.19,1630.51C4184.91,1614.34 4177.77,1592.11 4177.77,1563.81L4177.77,1441.02L4242.2,1441.02L4242.2,1555.85C4242.2,1570.25 4245.93,1581.43 4253.38,1589.39C4260.83,1597.35 4270.88,1601.33 4283.51,1601.33C4296.65,1601.33 4307.01,1597.16 4314.59,1588.82C4322.17,1580.48 4325.96,1568.61 4325.96,1553.2L4325.96,1441.02L4391.14,1441.02Z" style="fill:rgb(25,35,60);fill-rule:nonzero;"/>
                </g>
                <g transform="matrix(0.296013,0,0,0.296013,-112.949,95.5468)">
                    <path d="M4488.16,1438.36C4504.33,1438.36 4518.23,1442.03 4529.85,1449.35C4541.48,1456.68 4550.07,1466.66 4555.62,1479.29L4555.62,1441.02L4620.05,1441.02L4620.05,1652.49L4555.62,1652.49L4555.62,1614.21C4550.07,1626.85 4541.48,1636.83 4529.85,1644.15C4518.23,1651.48 4504.33,1655.14 4488.16,1655.14C4470.73,1655.14 4455.13,1650.79 4441.36,1642.07C4427.59,1633.35 4416.73,1620.78 4408.77,1604.36C4400.81,1587.94 4396.83,1568.74 4396.83,1546.75C4396.83,1524.52 4400.81,1505.26 4408.77,1488.96C4416.73,1472.66 4427.59,1460.15 4441.36,1451.44C4455.13,1442.72 4470.73,1438.36 4488.16,1438.36ZM4509.01,1495.21C4495.11,1495.21 4483.93,1499.76 4475.47,1508.86C4467,1517.95 4462.77,1530.58 4462.77,1546.75C4462.77,1562.92 4467,1575.56 4475.47,1584.65C4483.93,1593.75 4495.11,1598.3 4509.01,1598.3C4522.65,1598.3 4533.83,1593.62 4542.55,1584.27C4551.27,1574.92 4555.62,1562.42 4555.62,1546.75C4555.62,1530.84 4551.27,1518.27 4542.55,1509.04C4533.83,1499.82 4522.65,1495.21 4509.01,1495.21Z" style="fill:rgb(25,35,60);fill-rule:nonzero;"/>
                </g>
                <g transform="matrix(0.296013,0,0,0.296013,-113.145,95.5468)">
                    <rect x="4636.73" y="1372.04" width="64.807" height="280.451" style="fill:rgb(25,35,60);fill-rule:nonzero;"/>
                </g>
                <g transform="matrix(0.0897768,0,0,0.0897768,958.392,504.927)">
                    <path d="M222.238,397.508C222.238,374.119 225.982,351.597 232.904,330.511C261.083,244.671 341.918,182.613 437.132,182.613L1649.21,182.613C1744.42,182.613 1825.26,244.671 1853.43,330.511C1860.36,351.597 1864.1,374.119 1864.1,397.508L1733.97,397.508C1733.97,360.531 1703.95,330.511 1666.97,330.511L437.132,330.511C400.156,330.511 370.136,360.531 370.136,397.508C370.136,434.484 400.156,464.505 437.132,464.505L1649.21,464.505C1655.19,464.505 1661.11,464.75 1666.97,465.23C1724.48,469.946 1775.61,497.346 1811.37,538.453C1844.21,576.195 1864.1,625.493 1864.1,679.399C1864.1,702.788 1860.36,725.31 1853.43,746.396C1825.26,832.236 1744.42,894.294 1649.21,894.294L437.132,894.294C341.918,894.294 261.083,832.236 232.904,746.396C225.982,725.31 222.238,702.788 222.238,679.399L370.136,679.399C370.136,716.376 400.156,746.396 437.132,746.396L1666.97,746.396C1703.95,746.396 1733.97,716.376 1733.97,679.399C1733.97,642.423 1703.95,612.402 1666.97,612.402L1666.97,611.677C1661.11,612.157 1655.19,612.402 1649.21,612.402L437.132,612.402C372.435,612.402 314.378,583.75 274.967,538.453C242.13,500.712 222.238,451.414 222.238,397.508Z" style="fill:rgb(25,35,60);"/>
                </g>
            </g>
            <g transform="matrix(0.296013,0,0,0.296013,130.275,236.345)">
                <path d="M3910.96,1381.52C3910.96,1371.66 3914.5,1363.51 3921.58,1357.07C3928.65,1350.63 3938,1347.41 3949.62,1347.41C3961.24,1347.41 3970.59,1350.63 3977.67,1357.07C3984.74,1363.51 3988.28,1371.66 3988.28,1381.52C3988.28,1391.12 3984.74,1399.14 3977.67,1405.58C3970.59,1412.02 3961.24,1415.25 3949.62,1415.25C3938,1415.25 3928.65,1412.02 3921.58,1405.58C3914.5,1399.14 3910.96,1391.12 3910.96,1381.52Z" style="fill:rgb(195,241,50);fill-rule:nonzero;"/>
            </g>
        </g>
    </g>
</svg>
