<?xml version="1.0" encoding="UTF-8" standalone="no"?>
<!DOCTYPE svg PUBLIC "-//W3C//DTD SVG 1.1//EN" "http://www.w3.org/Graphics/SVG/1.1/DTD/svg11.dtd">
<svg width="100%" height="100%" viewBox="0 0 1284 1004" version="1.1" xmlns="http://www.w3.org/2000/svg" xmlns:xlink="http://www.w3.org/1999/xlink" xml:space="preserve" xmlns:serif="http://www.serif.com/" style="fill-rule:evenodd;clip-rule:evenodd;stroke-linecap:round;stroke-miterlimit:10;">
    <g transform="matrix(1,0,0,1,-377.311,-490.681)">
        <g transform="matrix(0.510122,0,0,0.510122,504.042,623.523)">
            <g id="logo_partneri_claim_default">
                <g id="logo_default">
                    <g id="claim" transform="matrix(1.96032,0,0,1.96032,-1289.66,-2041.34)">
                        <path d="M1015.57,1486.14L1015.57,1489.96C1013.74,1488.76 1011.55,1488.16 1009,1488.16C1007.17,1488.16 1005.72,1488.59 1004.64,1489.44C1003.56,1490.3 1003.02,1491.41 1003.02,1492.79C1003.02,1493.51 1003.16,1494.16 1003.45,1494.73C1003.73,1495.3 1004.23,1495.83 1004.95,1496.32C1005.67,1496.82 1006.29,1497.19 1006.8,1497.45C1007.31,1497.7 1008.1,1498.07 1009.18,1498.55C1010.2,1499 1010.98,1499.35 1011.52,1499.61C1012.06,1499.86 1012.75,1500.27 1013.61,1500.82C1014.46,1501.38 1015.11,1501.92 1015.54,1502.44C1015.98,1502.96 1016.37,1503.65 1016.71,1504.51C1017.06,1505.36 1017.23,1506.29 1017.23,1507.28C1017.23,1509.94 1016.32,1512.01 1014.49,1513.46C1012.66,1514.91 1010.3,1515.64 1007.43,1515.64C1004.25,1515.64 1001.55,1515 999.33,1513.71L999.33,1509.79C1001.52,1511.44 1004.19,1512.27 1007.34,1512.27C1009.22,1512.27 1010.71,1511.85 1011.79,1511.01C1012.87,1510.17 1013.41,1508.95 1013.41,1507.37C1013.41,1506.7 1013.28,1506.11 1013.02,1505.59C1012.77,1505.06 1012.35,1504.58 1011.76,1504.15C1011.18,1503.71 1010.63,1503.36 1010.1,1503.07C1009.58,1502.79 1008.86,1502.43 1007.97,1502.01C1007.78,1501.92 1007.51,1501.8 1007.15,1501.65C1005.87,1501.08 1004.88,1500.62 1004.21,1500.26C1003.53,1499.9 1002.74,1499.37 1001.83,1498.66C1000.91,1497.96 1000.24,1497.14 999.824,1496.21C999.405,1495.28 999.195,1494.2 999.195,1492.97C999.195,1490.39 1000.12,1488.38 1001.96,1486.92C1003.81,1485.47 1006.12,1484.74 1008.91,1484.74C1011.52,1484.74 1013.74,1485.21 1015.57,1486.14ZM1032.57,1497.29L1032.57,1493.74C1034.28,1492.69 1036.52,1492.16 1039.31,1492.16C1045.04,1492.16 1047.9,1495.07 1047.9,1500.89L1047.9,1515.33L1044.39,1515.33L1044.39,1512.63C1043.22,1514.58 1041.1,1515.55 1038.01,1515.55C1035.88,1515.55 1034.16,1514.92 1032.86,1513.66C1031.55,1512.4 1030.9,1510.81 1030.9,1508.89C1030.9,1506.7 1031.73,1505 1033.4,1503.79C1035.06,1502.58 1037.33,1501.97 1040.21,1501.97L1044.35,1501.97L1044.35,1500.8C1044.35,1499 1043.94,1497.64 1043.13,1496.73C1042.33,1495.81 1040.96,1495.36 1039.04,1495.36C1036.61,1495.36 1034.45,1496 1032.57,1497.29ZM1044.35,1504.8L1040.39,1504.8C1038.47,1504.8 1037.03,1505.18 1036.07,1505.93C1035.11,1506.67 1034.63,1507.62 1034.63,1508.76C1034.63,1509.9 1035.01,1510.82 1035.76,1511.53C1036.51,1512.23 1037.6,1512.58 1039.04,1512.58C1040.66,1512.58 1041.95,1512.12 1042.91,1511.21C1043.87,1510.3 1044.35,1509.13 1044.35,1507.73L1044.35,1504.8ZM1066.7,1492.52L1066.7,1496.53C1067.9,1493.71 1069.97,1492.3 1072.91,1492.3C1073.45,1492.3 1073.87,1492.33 1074.17,1492.39L1074.17,1495.9C1073.54,1495.69 1072.89,1495.58 1072.23,1495.58C1070.64,1495.58 1069.33,1496.32 1068.28,1497.79C1067.23,1499.26 1066.7,1500.95 1066.7,1502.87L1066.7,1515.33L1063.15,1515.33L1063.19,1492.52L1066.7,1492.52ZM1096.12,1515.73C1092.85,1515.73 1090.26,1514.63 1088.36,1512.42C1086.45,1510.22 1085.5,1507.44 1085.5,1504.08C1085.5,1500.69 1086.48,1497.87 1088.45,1495.6C1090.41,1493.34 1092.97,1492.21 1096.12,1492.21C1099.56,1492.21 1102.22,1493.32 1104.1,1495.54C1105.97,1497.76 1106.91,1500.57 1106.91,1503.99C1106.91,1507.38 1105.95,1510.18 1104.03,1512.4C1102.11,1514.62 1099.47,1515.73 1096.12,1515.73ZM1096.12,1495.36C1093.96,1495.36 1092.26,1496.2 1091.03,1497.88C1089.8,1499.56 1089.19,1501.61 1089.19,1504.04C1089.19,1506.41 1089.82,1508.42 1091.08,1510.09C1092.34,1511.75 1094.02,1512.58 1096.12,1512.58C1098.39,1512.58 1100.15,1511.77 1101.38,1510.13C1102.61,1508.5 1103.22,1506.47 1103.22,1504.04C1103.22,1501.52 1102.64,1499.44 1101.47,1497.81C1100.3,1496.17 1098.51,1495.36 1096.12,1495.36ZM1121.3,1515.33L1121.3,1483.53L1124.85,1483.53L1124.85,1515.33L1121.3,1515.33ZM1140.77,1515.33L1140.77,1492.52L1144.33,1492.52L1144.33,1515.33L1140.77,1515.33ZM1140.86,1487.04C1140.44,1486.59 1140.24,1486.03 1140.24,1485.37C1140.24,1484.71 1140.45,1484.16 1140.89,1483.71C1141.32,1483.26 1141.87,1483.03 1142.53,1483.03C1143.19,1483.03 1143.74,1483.26 1144.19,1483.71C1144.64,1484.16 1144.87,1484.71 1144.87,1485.37C1144.87,1486.03 1144.64,1486.58 1144.19,1487.01C1143.74,1487.45 1143.19,1487.67 1142.53,1487.67C1141.87,1487.67 1141.31,1487.46 1140.86,1487.04ZM1208.28,1515.33L1203.47,1515.33L1200.41,1512.49C1197.98,1514.62 1194.85,1515.68 1191.01,1515.68C1187.62,1515.68 1184.89,1514.91 1182.8,1513.37C1180.72,1511.83 1179.68,1509.84 1179.68,1507.41C1179.68,1504.02 1182.05,1501.43 1186.78,1499.63C1185.37,1498.1 1184.34,1496.74 1183.68,1495.56C1183.02,1494.38 1182.69,1493.12 1182.69,1491.8C1182.69,1489.56 1183.45,1487.74 1184.98,1486.36C1186.51,1484.98 1188.55,1484.29 1191.1,1484.29C1193.65,1484.29 1195.7,1485.04 1197.26,1486.52C1198.82,1488 1199.6,1489.86 1199.6,1492.07C1199.6,1493.78 1199.05,1495.33 1197.96,1496.71C1196.87,1498.09 1195.03,1499.38 1192.45,1500.57L1200.05,1507.68C1200.77,1506.36 1201.19,1504.89 1201.31,1503.27L1204.73,1503.27C1204.55,1505.85 1203.83,1508.1 1202.57,1510.02L1208.28,1515.33ZM1191.06,1487.53C1189.71,1487.53 1188.59,1487.91 1187.7,1488.68C1186.82,1489.44 1186.38,1490.5 1186.38,1491.85C1186.38,1492.81 1186.66,1493.76 1187.21,1494.7C1187.77,1495.65 1188.76,1496.86 1190.2,1498.33C1192.21,1497.4 1193.67,1496.44 1194.59,1495.47C1195.5,1494.5 1195.96,1493.38 1195.96,1492.12C1195.96,1490.83 1195.54,1489.74 1194.7,1488.86C1193.86,1487.97 1192.64,1487.53 1191.06,1487.53ZM1190.92,1512.4C1193.74,1512.4 1196.08,1511.65 1197.94,1510.15C1196.89,1509.16 1195.66,1508.02 1194.25,1506.71C1192.84,1505.41 1191.69,1504.35 1190.81,1503.54C1189.92,1502.73 1189.33,1502.18 1189.03,1501.88C1187.11,1502.6 1185.69,1503.39 1184.76,1504.26C1183.83,1505.13 1183.37,1506.17 1183.37,1507.37C1183.37,1508.89 1184.07,1510.12 1185.48,1511.03C1186.89,1511.94 1188.7,1512.4 1190.92,1512.4ZM1244.13,1492.52L1244.13,1495.99C1245.71,1493.44 1248.07,1492.16 1251.19,1492.16C1254.21,1492.16 1256.59,1493.27 1258.32,1495.47C1260.04,1497.67 1260.9,1500.42 1260.9,1503.72C1260.9,1507.23 1259.99,1510.1 1258.18,1512.34C1256.37,1514.57 1254.01,1515.68 1251.1,1515.68C1248.1,1515.68 1245.78,1514.41 1244.13,1511.86L1244.13,1524.19L1240.62,1524.19L1240.62,1492.52L1244.13,1492.52ZM1250.65,1512.45C1252.57,1512.45 1254.14,1511.69 1255.37,1510.18C1256.6,1508.66 1257.21,1506.51 1257.21,1503.72C1257.21,1501.23 1256.61,1499.23 1255.41,1497.7C1254.21,1496.17 1252.7,1495.4 1250.87,1495.4C1249.04,1495.4 1247.46,1496.07 1246.13,1497.4C1244.79,1498.74 1244.13,1500.92 1244.13,1503.95C1244.13,1506.86 1244.8,1509 1246.15,1510.38C1247.5,1511.76 1249,1512.45 1250.65,1512.45ZM1275.61,1497.29L1275.61,1493.74C1277.32,1492.69 1279.57,1492.16 1282.35,1492.16C1288.08,1492.16 1290.94,1495.07 1290.94,1500.89L1290.94,1515.33L1287.44,1515.33L1287.44,1512.63C1286.27,1514.58 1284.14,1515.55 1281.05,1515.55C1278.92,1515.55 1277.2,1514.92 1275.9,1513.66C1274.6,1512.4 1273.94,1510.81 1273.94,1508.89C1273.94,1506.7 1274.78,1505 1276.44,1503.79C1278.1,1502.58 1280.38,1501.97 1283.25,1501.97L1287.39,1501.97L1287.39,1500.8C1287.39,1499 1286.99,1497.64 1286.18,1496.73C1285.37,1495.81 1284,1495.36 1282.08,1495.36C1279.65,1495.36 1277.5,1496 1275.61,1497.29ZM1287.39,1504.8L1283.43,1504.8C1281.51,1504.8 1280.08,1505.18 1279.12,1505.93C1278.16,1506.67 1277.68,1507.62 1277.68,1508.76C1277.68,1509.9 1278.05,1510.82 1278.8,1511.53C1279.55,1512.23 1280.64,1512.58 1282.08,1512.58C1283.7,1512.58 1284.99,1512.12 1285.95,1511.21C1286.91,1510.3 1287.39,1509.13 1287.39,1507.73L1287.39,1504.8ZM1309.74,1492.52L1309.74,1496.53C1310.94,1493.71 1313.01,1492.3 1315.95,1492.3C1316.49,1492.3 1316.91,1492.33 1317.21,1492.39L1317.21,1495.9C1316.58,1495.69 1315.93,1495.58 1315.28,1495.58C1313.69,1495.58 1312.37,1496.32 1311.32,1497.79C1310.27,1499.26 1309.74,1500.95 1309.74,1502.87L1309.74,1515.33L1306.19,1515.33L1306.24,1492.52L1309.74,1492.52ZM1334.79,1495.4L1334.79,1508.76C1334.79,1511.19 1335.93,1512.4 1338.21,1512.4C1339.38,1512.4 1340.42,1512.06 1341.32,1511.37L1341.32,1514.74C1340.33,1515.28 1339.22,1515.55 1337.99,1515.55C1333.49,1515.55 1331.24,1513.26 1331.24,1508.67L1331.24,1495.4L1327.6,1495.4L1327.6,1492.52L1331.24,1492.52L1331.24,1486.86L1334.79,1486.86L1334.79,1492.52L1341.09,1492.52L1341.09,1495.4L1334.79,1495.4ZM1358.99,1492.52L1358.99,1496.48C1360.34,1493.63 1362.74,1492.21 1366.19,1492.21C1368.4,1492.21 1370.17,1492.88 1371.49,1494.23C1372.81,1495.58 1373.47,1497.38 1373.47,1499.63L1373.47,1515.33L1369.92,1515.33L1369.92,1500.57C1369.92,1498.89 1369.49,1497.61 1368.64,1496.73C1367.78,1495.84 1366.67,1495.4 1365.29,1495.4C1363.58,1495.4 1362.1,1496.06 1360.86,1497.38C1359.61,1498.7 1358.99,1500.53 1358.99,1502.87L1358.99,1515.33L1355.48,1515.33L1355.48,1492.52L1358.99,1492.52ZM1405.4,1510.83L1405.4,1514.16C1403.63,1515.09 1401.48,1515.55 1398.93,1515.55C1395.48,1515.55 1392.7,1514.49 1390.59,1512.38C1388.47,1510.27 1387.41,1507.47 1387.41,1503.99C1387.41,1500.36 1388.36,1497.5 1390.25,1495.4C1392.14,1493.3 1394.57,1492.25 1397.53,1492.25C1400.38,1492.25 1402.64,1493.17 1404.32,1495C1406,1496.83 1406.84,1499.42 1406.84,1502.78C1406.84,1503.74 1406.77,1504.62 1406.62,1505.43L1391.06,1505.43C1391.33,1507.68 1392.18,1509.4 1393.62,1510.6C1395.06,1511.8 1396.95,1512.4 1399.29,1512.4C1401.84,1512.4 1403.88,1511.88 1405.4,1510.83ZM1403.29,1502.46L1403.29,1501.56C1403.29,1499.67 1402.78,1498.17 1401.76,1497.04C1400.74,1495.92 1399.33,1495.36 1397.53,1495.36C1395.82,1495.36 1394.37,1495.97 1393.17,1497.2C1391.97,1498.43 1391.27,1500.18 1391.06,1502.46L1403.29,1502.46ZM1428.75,1490.18L1425.33,1490.18L1419.62,1483.17L1423.21,1483.17L1427.08,1487.89L1430.86,1483.17L1434.46,1483.17L1428.75,1490.18ZM1424.74,1492.52L1424.74,1496.53C1425.94,1493.71 1428.01,1492.3 1430.95,1492.3C1431.49,1492.3 1431.91,1492.33 1432.21,1492.39L1432.21,1495.9C1431.58,1495.69 1430.93,1495.58 1430.28,1495.58C1428.69,1495.58 1427.37,1496.32 1426.32,1497.79C1425.27,1499.26 1424.74,1500.95 1424.74,1502.87L1424.74,1515.33L1421.19,1515.33L1421.24,1492.52L1424.74,1492.52ZM1445.07,1515.33L1445.07,1492.52L1448.62,1492.52L1448.62,1515.33L1445.07,1515.33ZM1445.16,1487.04C1444.74,1486.59 1444.53,1486.03 1444.53,1485.37C1444.53,1484.71 1444.75,1484.16 1445.18,1483.71C1445.62,1483.26 1446.17,1483.03 1446.83,1483.03C1447.49,1483.03 1448.04,1483.26 1448.49,1483.71C1448.94,1484.16 1449.16,1484.71 1449.16,1485.37C1449.16,1486.03 1448.94,1486.58 1448.49,1487.01C1448.04,1487.45 1447.49,1487.67 1446.83,1487.67C1446.17,1487.67 1445.61,1487.46 1445.16,1487.04Z" style="fill:white;"/>
                    </g>
                    <g id="logo">
                        <g id="saroli" transform="matrix(1.96032,0,0,1.96032,-1289.66,-2041.34)">
                            <path d="M1022.89,1363.7L1004.73,1394.7L1031.91,1394.7L1047.09,1420.6L958.95,1420.6L1022.91,1311.44L1098.01,1439.6L1097.78,1439.99L1067.59,1439.99L1022.89,1363.7L1023.03,1363.47L1022.76,1363.47L1022.89,1363.7ZM1098.01,1439.6L1127.44,1389.36L1098.59,1389.36C1083.49,1387.67 1070.97,1377.36 1066.09,1363.47C1065.33,1361.3 1064.75,1359.04 1064.38,1356.72C1064.06,1354.7 1063.89,1352.63 1063.89,1350.52C1063.89,1345.89 1064.7,1341.45 1066.18,1337.33C1071.59,1322.24 1086.03,1311.44 1102.98,1311.44L1188.31,1311.44C1178.8,1317.6 1170.8,1326.54 1165.12,1337.33L1102.98,1337.33C1095.76,1337.33 1089.91,1343.19 1089.91,1350.4C1089.91,1352.69 1090.5,1354.85 1091.54,1356.72C1093.77,1360.74 1098.06,1363.47 1102.98,1363.47L1156.71,1363.47C1156.13,1367.45 1155.84,1371.54 1155.84,1375.71C1155.84,1380.38 1156.21,1384.94 1156.92,1389.36C1156.94,1389.49 1156.96,1389.61 1156.98,1389.73L1127.54,1439.99L1098.24,1439.99L1098.01,1439.6ZM873.158,1414.09L917.715,1414.09C923.066,1414.09 927.41,1409.75 927.41,1404.4C927.41,1402.2 926.679,1400.18 925.449,1398.56C924.909,1397.84 924.272,1397.21 923.559,1396.66L903.979,1377.09C902.038,1374.99 900.323,1372.69 898.873,1370.21C897.63,1368.08 896.582,1365.83 895.754,1363.47L895.746,1363.45C894.988,1361.29 894.414,1359.04 894.045,1356.72C893.722,1354.7 893.555,1352.63 893.555,1350.52C893.555,1345.89 894.361,1341.45 895.841,1337.33C897.088,1333.86 898.813,1330.61 900.937,1327.67C908.039,1317.84 919.598,1311.44 932.64,1311.44C932.863,1311.44 933.085,1311.44 933.306,1311.44L933.31,1311.44L1013.73,1311.44L998.558,1337.33L933.999,1337.33C928.649,1337.33 924.305,1341.67 924.305,1347.03C924.305,1349.66 925.355,1352.04 927.058,1353.79C927.117,1353.85 927.176,1353.91 927.235,1353.97L945.701,1372.43C948.683,1375.83 951.11,1379.73 952.837,1383.98C953.542,1385.72 954.131,1387.52 954.593,1389.36C955.029,1391.1 955.352,1392.89 955.556,1394.7C955.724,1396.2 955.81,1397.73 955.81,1399.27C955.81,1404.5 954.822,1409.5 953.024,1414.09C952.396,1415.7 951.669,1417.25 950.85,1418.75L949.617,1420.86C949.378,1421.24 949.133,1421.61 948.881,1421.99C941.565,1432.84 929.158,1439.99 915.095,1439.99L857.985,1439.99L873.158,1414.09ZM1174.62,1337.33C1181.16,1327.1 1190.26,1319.21 1200.8,1314.95C1206.44,1312.67 1212.5,1311.44 1218.8,1311.44C1236.88,1311.44 1252.94,1321.62 1262.98,1337.33C1266.69,1343.12 1269.57,1349.66 1271.44,1356.72C1272.03,1358.92 1272.51,1361.17 1272.89,1363.47C1273.55,1367.43 1273.89,1371.53 1273.89,1375.71C1273.89,1380.4 1273.46,1384.96 1272.65,1389.36C1272.31,1391.17 1271.91,1392.95 1271.44,1394.7C1269.57,1401.76 1266.69,1408.3 1262.98,1414.09C1261.52,1416.38 1259.93,1418.56 1258.22,1420.6C1248.21,1432.56 1234.24,1439.99 1218.8,1439.99C1203.36,1439.99 1189.39,1432.56 1179.38,1420.6C1177.67,1418.56 1176.08,1416.38 1174.62,1414.09C1170.91,1408.3 1168.03,1401.76 1166.16,1394.7C1165.69,1392.95 1165.29,1391.17 1164.95,1389.36C1164.28,1385.74 1163.87,1382.01 1163.75,1378.19C1163.72,1377.37 1163.71,1376.54 1163.71,1375.71C1163.71,1371.53 1164.05,1367.43 1164.71,1363.47C1165.09,1361.17 1165.57,1358.92 1166.16,1356.72C1168.03,1349.66 1170.91,1343.12 1174.62,1337.33ZM1218.8,1337.33C1206.56,1337.33 1195.88,1345.14 1190.21,1356.72C1189.17,1358.85 1188.3,1361.11 1187.61,1363.47C1186.5,1367.32 1185.9,1371.43 1185.9,1375.71C1185.9,1380.52 1186.66,1385.12 1188.05,1389.36C1188.65,1391.22 1189.38,1393 1190.21,1394.7C1195.88,1406.28 1206.56,1414.09 1218.8,1414.09C1231.04,1414.09 1241.72,1406.28 1247.39,1394.7C1248.22,1393 1248.95,1391.22 1249.55,1389.36C1250.94,1385.12 1251.7,1380.52 1251.7,1375.71C1251.7,1371.43 1251.1,1367.32 1249.99,1363.47C1249.31,1361.11 1248.43,1358.85 1247.39,1356.72C1241.72,1345.14 1231.04,1337.33 1218.8,1337.33ZM1257.25,1439.99L1268.47,1420.84C1268.53,1420.76 1268.58,1420.68 1268.63,1420.6C1270.01,1418.52 1271.3,1416.35 1272.48,1414.09C1272.64,1413.8 1272.8,1413.5 1272.95,1413.19L1332.43,1311.68L1348.26,1338.7L1304.09,1414.09L1392.44,1414.09L1407.61,1439.99L1257.25,1439.99Z" style="fill:white;"/>
                        </g>
                        <path id="colorbar" d="M1464.31,631.487L1552.2,781.487L1487.7,781.487L1399.81,631.487L1464.31,631.487Z" style="fill:rgb(91,50,154);"/>
                    </g>
                </g>
            </g>
        </g>
        <g transform="matrix(0.633428,-0.192754,0.192754,0.633428,298.608,510.638)">
            <g transform="matrix(1.44491,0.43969,-0.43969,1.44491,122.494,5.76865)">
                <path d="M675.821,317.29L693.339,329.252L705.302,311.734" style="fill:none;stroke:rgb(91,50,154);stroke-width:5px;"/>
                <path d="M693.339,329.252C689.951,309.736 677.127,213.382 746.648,178.313" style="fill:none;stroke:rgb(91,50,154);stroke-width:5px;stroke-linejoin:round;stroke-miterlimit:1.5;"/>
            </g>
        </g>
        <g transform="matrix(-0.639546,0.171366,-0.171366,-0.639546,1652.57,1512.95)">
            <g transform="matrix(-1.45887,-0.390902,0.390902,-1.45887,1460.83,1989.85)">
                <path d="M531.153,699.753L514.046,687.209L501.502,704.316" style="fill:none;stroke:rgb(91,50,154);stroke-width:5px;"/>
                <path d="M514.046,687.209C516.776,706.828 526.356,803.558 455.696,836.272" style="fill:none;stroke:rgb(91,50,154);stroke-width:5px;stroke-linejoin:round;stroke-miterlimit:1.5;"/>
            </g>
        </g>
        <g transform="matrix(1.47017e-16,0.662107,-0.662107,1.47017e-16,1876.39,411.806)">
            <g transform="matrix(3.35361e-16,-1.51033,1.51033,3.35361e-16,119.126,2264.1)">
                <path d="M994.966,556.408L978.422,569.685L991.699,586.23" style="fill:none;stroke:rgb(91,50,154);stroke-width:5px;"/>
                <path d="M978.422,569.685C998.079,572.126 1093.99,587.907 1107.3,664.627" style="fill:none;stroke:rgb(91,50,154);stroke-width:5px;stroke-linejoin:round;stroke-miterlimit:1.5;"/>
            </g>
        </g>
        <g transform="matrix(-0.0252143,-0.661627,0.661627,-0.0252143,169.316,1581.29)">
            <g transform="matrix(-0.0575164,1.50923,-1.50923,-0.0575164,1634.02,376.641)">
                <path d="M271.559,436.589L287.586,422.691L273.688,406.665" style="fill:none;stroke:rgb(91,50,154);stroke-width:5px;"/>
                <path d="M287.586,422.691C267.85,421.001 171.404,408.884 155.182,332.727" style="fill:none;stroke:rgb(91,50,154);stroke-width:5px;stroke-linejoin:round;stroke-miterlimit:1.5;"/>
            </g>
        </g>
        <g transform="matrix(0.327436,0,0,0.327436,1115.83,488.062)">
            <path d="M176.672,297.066C183.307,301.892 191.18,304.729 199.367,305.245L199.367,312C199.367,316.389 202.979,320 207.367,320C211.756,320 215.367,316.389 215.367,312L215.367,304.473C229.323,301.146 240.009,289.772 242.461,275.637C245.455,260.056 236.127,244.543 220.961,239.883C219.124,239.234 217.241,238.535 215.367,237.832L215.367,206.442C217.933,207.176 220.336,208.393 222.445,210.027C223.913,211.348 225.82,212.079 227.794,212.079C232.181,212.079 235.792,208.468 235.792,204.081C235.792,201.853 234.861,199.724 233.227,198.211C228.074,194.017 221.919,191.231 215.367,190.126L215.367,184C215.367,179.611 211.756,176 207.367,176C202.979,176 199.367,179.611 199.367,184L199.367,190.749C187.606,193.203 178.506,202.674 176.524,214.523C174.354,224.056 177.688,234.042 185.149,240.359C189.539,243.66 194.314,246.416 199.367,248.567L199.367,289.195C194.313,288.642 189.5,286.735 185.438,283.676C184.139,282.831 182.623,282.381 181.074,282.381C176.684,282.381 173.072,285.994 173.072,290.384C173.072,293.072 174.427,295.587 176.672,297.066ZM195.024,227.77C192.319,225.094 191.257,221.157 192.25,217.484C193.03,213.302 195.644,209.682 199.367,207.624L199.367,230.591C197.858,229.748 196.407,228.806 195.023,227.77L195.024,227.77ZM226.68,272.984C225.587,279.469 221.344,285.005 215.367,287.746L215.367,254.872C223.305,256.932 228.311,264.947 226.68,272.984L226.68,272.984Z" style="fill:rgb(91,50,154);fill-rule:nonzero;"/>
        </g>
        <g transform="matrix(0.327436,0,0,0.327436,1115.83,488.062)">
            <path d="M24,408L392,408C400.774,407.99 407.99,400.774 408,392L408,376C407.986,362.839 397.161,352.014 384,352L384,144C397.161,143.986 407.986,133.161 408,120L408,99.09C407.966,89.118 401.753,80.15 392.43,76.613L210.812,8.508C209,7.828 207,7.828 205.188,8.508L23.57,76.617C14.247,80.151 8.033,89.119 8,99.09L8,120C8.014,133.161 18.839,143.986 32,144L32,352C18.839,352.014 8.014,362.839 8,376L8,392C8.01,400.774 15.226,407.99 24,408ZM48,176L104,176L104,320L48,320L48,176ZM120,144L296,144L296,352L120,352L120,144ZM368,320L312,320L312,176L368,176L368,320ZM248,368L248,392L168,392L168,368L248,368ZM392,376L392.008,392L264,392L264,368L384,368C388.387,368.004 391.996,371.613 392,376ZM312,352L312,336L368,336L368,352L312,352ZM368,160L312,160L312,144L368,144L368,160ZM29.195,91.598L208,24.543L386.805,91.594C388.838,92.387 390.46,93.98 391.289,96L24.711,96C25.539,93.981 27.161,92.388 29.195,91.598ZM24,120L24,112L392,112L392,120C391.996,124.387 388.387,127.996 384,128L32,128C27.613,127.996 24.004,124.387 24,120ZM104,144L104,160L48,160L48,144L104,144ZM48,336L104,336L104,352L48,352L48,336ZM24,376C24.004,371.613 27.613,368.004 32,368L152,368L152,392L24,392L24,376Z" style="fill:white;fill-rule:nonzero;"/>
        </g>
        <g transform="matrix(0.509791,0,0,0.509791,1453.01,1146.77)">
            <path d="M180.57,407.37C223.555,407.429 265.024,391.295 296.666,362.201L318.274,383.808C322.782,388.323 328.907,390.863 335.287,390.863C342.28,390.863 348.936,387.812 353.5,382.515C388.667,341.346 408.002,288.942 408.002,234.798C408.002,116.744 316.082,17.318 198.391,8.069C197.803,8.026 197.213,8.004 196.624,8.004C183.428,8.004 172.57,18.862 172.57,32.058C172.57,32.06 172.57,32.063 172.57,32.065L172.57,62.615C81.031,66.811 8,143.267 8,234.902C8,329.515 85.855,407.37 180.468,407.37C180.502,407.37 180.536,407.37 180.57,407.37ZM180.57,391.37C97.685,391.487 28.41,325.588 24.39,242.8L177.258,242.8L285.353,350.889C256.708,376.976 219.314,391.423 180.57,391.37ZM188.57,32.065C188.57,32.052 188.57,32.038 188.57,32.025C188.57,27.624 192.191,24.004 196.592,24.004C196.775,24.004 196.958,24.01 197.141,24.022C306.55,32.623 392,125.053 392,234.8C392,285.133 374.027,333.848 341.336,372.12C339.816,373.873 337.607,374.881 335.288,374.881C333.145,374.881 331.09,374.021 329.586,372.495L188.57,231.487L188.57,32.065ZM172.57,205.915L106.947,96.536C127.228,85.788 149.641,79.668 172.57,78.616L172.57,205.915ZM93.254,104.813L166.438,226.8L24.39,226.8C26.721,177.562 52.302,132.248 93.254,104.813Z" style="fill:white;fill-rule:nonzero;"/>
        </g>
        <g transform="matrix(0.29672,0,0,0.29672,666.05,1373.1)">
            <path d="M227.402,191.523C222.834,189.909 218.772,188.396 214.973,186.929L214.973,126.218C222.231,127.091 229.101,129.981 234.801,134.559C236.27,135.884 238.181,136.619 240.16,136.619C244.549,136.619 248.16,133.008 248.16,128.619C248.16,126.4 247.237,124.278 245.613,122.766C236.91,115.562 226.225,111.162 214.973,110.148L214.973,96C214.973,91.611 211.361,88 206.973,88C202.584,88 198.973,91.611 198.973,96L198.973,110.822C180.124,113.249 164.964,127.795 161.762,146.527C158.588,160.187 163.295,174.533 173.945,183.656C181.65,189.391 190.062,194.11 198.973,197.695L198.973,272.266C188.024,272.26 177.364,268.714 168.594,262.16C167.292,261.309 165.77,260.855 164.215,260.855C159.826,260.855 156.215,264.467 156.215,268.855C156.215,271.552 157.579,274.074 159.836,275.551C171.178,283.879 184.901,288.346 198.973,288.29L198.973,304C198.973,308.389 202.584,312 206.973,312C211.361,312 214.973,308.389 214.973,304L214.973,287.713C237.542,284.324 255.446,266.61 259.074,244.078C263.45,221.159 249.711,198.361 227.402,191.523ZM183.82,171.066C177.897,165.603 175.456,157.291 177.484,149.492C179.283,138.316 187.876,129.378 198.972,127.14L198.972,180.114C193.612,177.65 188.532,174.616 183.82,171.066ZM243.297,241.426C240.885,256.255 229.634,268.188 214.973,271.467L214.973,204.034C217.257,204.878 219.574,205.728 222.07,206.61C237.015,210.945 246.289,226.155 243.297,241.426Z" style="fill:rgb(91,50,154);fill-rule:nonzero;"/>
        </g>
        <g transform="matrix(0.29672,0,0,0.29672,666.05,1373.1)">
            <path d="M384,8L32,8C18.839,8.014 8.014,18.839 8,32L8,154.09C7.866,273.722 89.966,378.876 206.059,407.762C207.333,408.08 208.667,408.08 209.941,407.762C326.034,378.876 408.134,273.722 408,154.09L408,32C407.986,18.839 397.161,8.014 384,8ZM392,32L392,104L360,104L360,64C360,63.999 360,63.999 360,63.998C360,59.61 356.39,56 352.002,56C352.001,56 352.001,56 352,56L312,56L312,24L384,24C388.387,24.004 391.996,27.613 392,32ZM208,341.762C126.892,315.511 71.692,239.339 72,154.09L72,72L344,72L344,154.09C344.307,239.339 289.108,315.511 208,341.762ZM120,56L120,24L296,24L296,56L120,56ZM32,24L104,24L104,56L64,56C59.611,56 56,59.611 56,64L56,104L24,104L24,32C24.006,27.613 27.613,24.006 32,24ZM24,154.09L24,120L56,120L56,154.09C55.821,217.894 84.389,278.501 133.717,318.97L111.146,341.542C55.892,295.005 23.965,226.329 24,154.09ZM208,391.746C177.614,383.855 149.025,370.198 123.792,351.521L146.574,328.739C164.641,341.405 184.556,351.206 205.613,357.797C207.167,358.281 208.833,358.281 210.387,357.797C231.444,351.206 251.359,341.405 269.426,328.739L292.208,351.52C266.974,370.198 238.386,383.854 208,391.746L208,391.746ZM304.854,341.541L282.283,318.97C331.611,278.501 360.179,217.894 360,154.09L360,120L392,120L392,154.09C392.034,226.329 360.107,295.005 304.854,341.541L304.854,341.541Z" style="fill:white;fill-rule:nonzero;"/>
        </g>
        <g transform="matrix(0.471975,0,0,0.471975,1376.62,724.487)">
            <path d="M181.766,193.547C183.809,191.426 184.598,191.094 192.312,195.098C196.997,197.947 202.296,199.633 207.766,200.016C213.137,199.947 218.232,197.593 221.766,193.547C223.193,192.058 223.99,190.073 223.99,188.011C223.99,183.622 220.379,180.01 215.99,180.01C213.82,180.01 211.741,180.892 210.234,182.453C208.191,184.578 207.41,184.91 199.688,180.902C192.802,175.984 183.865,174.895 176,178.016C168.132,174.911 159.204,175.999 152.312,180.903C144.598,184.919 143.808,184.583 141.766,182.454C140.257,180.88 138.169,179.989 135.99,179.989C131.601,179.989 127.989,183.601 127.989,187.99C127.989,190.062 128.795,192.056 130.234,193.547C141.043,204.786 152.715,198.719 159.688,195.098C167.41,191.094 168.195,191.43 170.234,193.547C173.42,196.66 178.581,196.66 181.766,193.547Z" style="fill:rgb(91,50,154);fill-rule:nonzero;"/>
        </g>
        <g transform="matrix(0.471975,0,0,0.471975,1376.62,724.487)">
            <path d="M256,224L233.391,224C267.218,203.815 288,167.213 288,127.822C288,66.38 237.441,15.822 176,15.822C114.559,15.822 64,66.38 64,127.822C64,167.213 84.782,203.815 118.609,224L96,224C47.745,224.055 8.055,263.745 8,312L8,408C8,412.389 11.611,416 16,416L336,416C340.389,416 344,412.389 344,408L344,312C343.945,263.745 304.255,224.055 256,224ZM176,32C206.718,32.028 235.621,46.823 253.607,71.724C226.929,73.427 200.737,63.775 181.543,45.168C178.466,42.209 173.534,42.209 170.457,45.168C151.264,63.776 125.071,73.428 98.393,71.724C116.379,46.823 145.282,32.028 176,32ZM89.385,86.879C120.509,91.184 152.036,82.017 176,61.695C199.961,82.021 231.491,91.188 262.615,86.879C267.592,97.283 270.635,108.507 271.595,120L246.864,120C243.288,105.928 230.519,95.999 216,95.999C201.481,95.999 188.712,105.928 185.136,120L166.864,120C163.288,105.928 150.519,95.999 136,95.999C121.481,95.999 108.712,105.928 105.136,120L80.405,120C81.365,108.507 84.408,97.283 89.385,86.879ZM232,128C232,136.777 224.777,144 216,144C207.223,144 200,136.777 200,128C200,119.223 207.223,112 216,112C224.774,112.009 231.991,119.226 232,128ZM152,128C152,136.777 144.777,144 136,144C127.223,144 120,136.777 120,128C120,119.223 127.223,112 136,112C144.774,112.009 151.991,119.226 152,128ZM80.405,136L105.136,136C108.712,150.072 121.481,160.001 136,160.001C150.519,160.001 163.288,150.072 166.864,136L185.136,136C188.712,150.072 201.481,160.001 216,160.001C230.519,160.001 243.288,150.072 246.864,136L271.595,136C267.495,185.469 225.639,224 176,224C126.362,224 84.505,185.469 80.406,136L80.405,136ZM201.566,240L176,280.906L150.434,240L201.566,240ZM80,400L24,400L24,312C24.057,278.548 47.392,249.319 80,241.854L80,400ZM256,400L96,400L96,240L131.566,240L169.215,300.238C170.676,302.574 173.245,303.997 176,303.997C178.755,303.997 181.324,302.574 182.785,300.238L220.434,240L256,240L256,400ZM328,400L272,400L272,241.854C304.608,249.319 327.943,278.548 328,312L328,400Z" style="fill:white;fill-rule:nonzero;"/>
        </g>
        <g transform="matrix(0.363304,0,0,0.363304,708.391,606.733)">
            <path d="M144,280C218.607,280 280,218.607 280,144C280,69.393 218.607,8 144,8C69.393,8 8,69.393 8,144C8.083,218.576 69.424,279.917 144,280ZM144,24C209.83,24 264,78.17 264,144C264,209.83 209.83,264 144,264C78.17,264 24,209.83 24,144C24.073,78.198 78.198,24.073 144,24Z" style="fill:white;fill-rule:nonzero;"/>
        </g>
        <g transform="matrix(0.363304,0,0,0.363304,708.391,606.733)">
            <path d="M102.57,208.957C112.044,215.855 123.416,219.67 135.133,219.881L135.133,232C135.133,236.389 138.744,240 143.133,240C147.521,240 151.133,236.389 151.133,232L151.133,219.28C170.3,215.938 185.331,200.716 188.43,181.508C192.256,161.523 180.282,141.636 160.828,135.668C157.646,134.543 154.379,133.356 151.133,132.112L151.133,83.082C156.506,83.964 161.572,86.186 165.859,89.543C167.329,90.871 169.24,91.606 171.221,91.606C175.608,91.606 179.218,87.996 179.218,83.609C179.218,81.383 178.289,79.255 176.656,77.742C169.388,71.715 160.515,67.939 151.133,66.88L151.133,56C151.133,51.611 147.521,48 143.133,48C138.744,48 135.133,51.611 135.133,56L135.133,67.497C119.111,70.009 106.399,82.545 103.664,98.531C100.893,110.538 105.053,123.137 114.43,131.133C120.807,135.899 127.763,139.836 135.133,142.849L135.133,203.859C126.531,203.644 118.208,200.744 111.336,195.566C110.033,194.714 108.51,194.259 106.953,194.259C102.563,194.259 98.951,197.872 98.951,202.262C98.951,204.958 100.314,207.48 102.57,208.957L102.57,208.957ZM151.133,149.168C164.991,154.226 175.605,161.436 172.648,178.855C170.738,190.322 162.328,199.688 151.133,202.817L151.133,149.168ZM124.305,118.543C119.657,114.205 117.765,107.638 119.391,101.492C120.717,93.073 126.902,86.19 135.133,83.976L135.133,125.163C131.32,123.309 127.694,121.092 124.305,118.543Z" style="fill:rgb(91,50,154);fill-rule:nonzero;"/>
        </g>
        <g transform="matrix(0.363304,0,0,0.363304,708.391,606.733)">
            <path d="M394.344,281.203L371.719,303.836L293.148,225.266C291.649,223.766 289.613,222.923 287.492,222.923C283.104,222.923 279.493,226.534 279.493,230.922C279.493,233.043 280.336,235.079 281.836,236.578L366.062,320.805C369.218,323.788 374.219,323.788 377.375,320.805L392,306.18L392,392L306.18,392L320.805,377.375C322.304,375.876 323.148,373.84 323.148,371.719C323.148,369.598 322.304,367.562 320.805,366.062L236.578,281.836C235.079,280.336 233.043,279.493 230.922,279.493C226.534,279.493 222.923,283.104 222.923,287.492C222.923,289.613 223.766,291.649 225.266,293.148L303.836,371.719L281.203,394.344C279.709,395.844 278.868,397.877 278.868,399.995C278.868,404.381 282.473,407.992 286.859,408L400,408C400.002,408 400.003,408 400.005,408C404.391,408 408,404.391 408,400.005C408,400.003 408,400.002 408,400L408,286.859C407.994,282.473 404.383,278.866 399.996,278.866C397.878,278.866 395.844,279.707 394.344,281.203Z" style="fill:white;fill-rule:nonzero;"/>
        </g>
        <g transform="matrix(0.363304,0,0,0.363304,708.391,606.733)">
            <path d="M400.002,208L399.998,208C395.61,208 392,211.61 392,215.998C392,215.999 392,215.999 392,216L392,228.688L316.883,153.57C315.383,152.071 313.347,151.227 311.227,151.227C306.838,151.227 303.227,154.838 303.227,159.227C303.227,161.347 304.071,163.383 305.57,164.883L380.688,240L368,240C363.611,240 360,243.611 360,248C360,252.389 363.611,256 368,256L400,256C404.382,255.982 407.982,252.382 408,248L408,216C408,215.999 408,215.999 408,215.998C408,211.61 404.39,208 400.002,208Z" style="fill:white;fill-rule:nonzero;"/>
        </g>
        <g transform="matrix(0.363304,0,0,0.363304,708.391,606.733)">
            <path d="M400.002,120L399.998,120C395.61,120 392,123.61 392,127.998C392,127.999 392,127.999 392,128L392,140.688L261.656,10.344C260.153,8.813 258.095,7.95 255.949,7.95C251.561,7.95 247.95,11.561 247.95,15.949C247.95,18.095 248.813,20.153 250.344,21.656L380.688,152L368,152C363.611,152 360,155.611 360,160C360,164.389 363.611,168 368,168L400,168C404.382,167.982 407.982,164.382 408,160L408,128C408,127.999 408,127.999 408,127.998C408,123.61 404.39,120 400.002,120Z" style="fill:rgb(91,50,154);fill-rule:nonzero;"/>
        </g>
        <g transform="matrix(0.363304,0,0,0.363304,708.391,606.733)">
            <path d="M248.005,360L247.995,360C243.609,360 240,363.609 240,367.995C240,367.997 240,367.998 240,368L240,380.688L164.883,305.57C163.383,304.071 161.347,303.227 159.227,303.227C154.838,303.227 151.227,306.838 151.227,311.227C151.227,313.347 152.071,315.383 153.57,316.883L228.688,392L216,392C211.611,392 208,395.611 208,400C208,404.389 211.611,408 216,408L248,408C252.382,407.983 255.983,404.382 256,400L256,368C256,367.998 256,367.997 256,367.995C256,363.609 252.391,360 248.005,360Z" style="fill:rgb(91,50,154);fill-rule:nonzero;"/>
        </g>
        <g transform="matrix(0.363304,0,0,0.363304,708.391,606.733)">
            <path d="M160.005,360L159.995,360C155.609,360 152,363.609 152,367.995C152,367.997 152,367.998 152,368L152,380.688L21.656,250.344C20.153,248.813 18.095,247.95 15.949,247.95C11.561,247.95 7.95,251.561 7.95,255.949C7.95,258.095 8.813,260.153 10.344,261.656L140.688,392L128,392C123.611,392 120,395.611 120,400C120,404.389 123.611,408 128,408L160,408C164.382,407.983 167.983,404.382 168,400L168,368C168,367.998 168,367.997 168,367.995C168,363.609 164.391,360 160.005,360Z" style="fill:white;fill-rule:nonzero;"/>
        </g>
        <g transform="matrix(0.493762,0,0,0.493762,1078.09,1206.15)">
            <path d="M308.961,111.883C307.124,111.234 305.241,110.535 303.367,109.832L303.367,78.445C305.932,79.179 308.335,80.395 310.445,82.027C311.916,83.359 313.83,84.097 315.814,84.097C320.201,84.097 323.812,80.486 323.812,76.099C323.812,73.862 322.873,71.725 321.227,70.211C316.074,66.016 309.919,63.23 303.367,62.125L303.367,56C303.367,51.611 299.756,48 295.367,48C290.979,48 287.367,51.611 287.367,56L287.367,62.748C275.606,65.203 266.506,74.674 264.523,86.523C262.354,96.056 265.688,106.042 273.148,112.359C277.539,115.66 282.313,118.416 287.367,120.567L287.367,161.188C282.313,160.637 277.5,158.732 273.438,155.676C272.145,154.842 270.638,154.398 269.099,154.398C264.709,154.398 261.097,158.01 261.097,162.4C261.097,165.078 262.441,167.585 264.672,169.066C271.307,173.892 279.18,176.729 287.367,177.245L287.367,184C287.367,188.389 290.979,192 295.367,192C299.756,192 303.367,188.389 303.367,184L303.367,176.473C317.323,173.146 328.009,161.772 330.461,147.637C333.455,132.056 324.127,116.543 308.961,111.883ZM287.367,102.591C285.858,101.748 284.407,100.806 283.023,99.77C280.318,97.094 279.257,93.157 280.25,89.484C281.03,85.302 283.643,81.682 287.367,79.624L287.367,102.591ZM314.68,144.984C313.587,151.469 309.345,157.005 303.368,159.746L303.368,126.872C311.306,128.933 316.311,136.947 314.68,144.984Z" style="fill:rgb(91,50,154);fill-rule:nonzero;"/>
        </g>
        <g transform="matrix(0.493762,0,0,0.493762,1078.09,1206.15)">
            <path d="M148.812,328L104.984,327.613C111.768,319.22 114.732,308.356 113.153,297.68L126.148,297.68C130.537,297.68 134.148,294.069 134.148,289.68C134.148,285.291 130.537,281.68 126.148,281.68L109.244,281.68C104.967,275.641 102.321,268.599 101.562,261.239L101.556,261.205L101.562,261.172C101.518,247.82 121.385,245.242 130.242,250.625C134.373,252.863 137.592,256.478 139.336,260.84C140.302,264.281 143.463,266.676 147.036,266.676C151.424,266.676 155.034,263.065 155.034,258.678C155.034,257.935 154.931,257.195 154.727,256.481C151.938,248.198 146.173,241.236 138.555,236.953C119.265,225.242 85.545,234.118 85.568,261.142L85.563,261.168L85.565,261.199L85.563,261.235L85.569,261.267C85.819,268.38 87.638,275.352 90.897,281.68L84,281.68C79.611,281.68 76,285.291 76,289.68C76,294.069 79.611,297.68 84,297.68L97.093,297.68L97.125,297.958C98.79,306.227 96.186,314.803 90.203,320.75L82.461,330.493C81.341,331.907 80.732,333.659 80.732,335.462C80.732,339.824 84.295,343.424 88.656,343.469L148.672,344L148.742,344C148.754,344 148.766,344 148.777,344C153.166,344 156.778,340.389 156.778,336C156.778,331.625 153.188,328.019 148.813,328L148.812,328Z" style="fill:rgb(91,50,154);fill-rule:nonzero;"/>
        </g>
        <g transform="matrix(0.493762,0,0,0.493762,1078.09,1206.15)">
            <path d="M34.337,173.649C37.446,176.752 42.554,176.752 45.663,173.649L69.656,149.656C71.124,148.161 71.948,146.147 71.948,144.051C71.948,139.663 68.337,136.052 63.949,136.052C61.853,136.052 59.839,136.876 58.344,138.344L48,148.688L48,56C48.004,51.613 51.613,48.004 56,48L148.688,48L138.344,58.344C136.876,59.839 136.052,61.853 136.052,63.949C136.052,68.337 139.663,71.948 144.051,71.948C146.147,71.948 148.161,71.124 149.656,69.656L173.651,45.662C176.744,42.55 176.744,37.45 173.651,34.338L149.656,10.344C148.161,8.876 146.147,8.052 144.051,8.052C139.663,8.052 136.052,11.663 136.052,16.051C136.052,18.147 136.876,20.161 138.344,21.656L148.688,32L56,32C42.839,32.014 32.014,42.839 32,56L32,148.688L21.656,138.344C20.161,136.876 18.147,136.052 16.051,136.052C11.663,136.052 8.052,139.663 8.052,144.051C8.052,146.147 8.876,148.161 10.344,149.656L34.337,173.649Z" style="fill:white;fill-rule:nonzero;"/>
        </g>
        <g transform="matrix(0.493762,0,0,0.493762,1078.09,1206.15)">
            <path d="M296,8C234.559,8 184,58.559 184,120C184,181.441 234.559,232 296,232C357.441,232 408,181.441 408,120C407.931,58.585 357.415,8.069 296,8ZM296,216C243.336,216 200,172.664 200,120C200,67.336 243.336,24 296,24C348.664,24 392,67.336 392,120C391.941,172.642 348.642,215.941 296,216Z" style="fill:white;fill-rule:nonzero;"/>
        </g>
        <g transform="matrix(0.493762,0,0,0.493762,1078.09,1206.15)">
            <path d="M120,184C58.559,184 8,234.559 8,296C8,357.441 58.559,408 120,408C181.441,408 232,357.441 232,296C231.931,234.585 181.415,184.069 120,184ZM120,392C67.336,392 24,348.664 24,296C24,243.336 67.336,200 120,200C172.664,200 216,243.336 216,296C215.941,348.642 172.642,391.941 120,392Z" style="fill:white;fill-rule:nonzero;"/>
        </g>
        <g transform="matrix(0.420577,0,0,0.420577,448.611,1069.84)">
            <path d="M397.027,12.064L329.894,131.412L265.316,74.01C263.836,72.808 261.986,72.151 260.079,72.151C257.214,72.151 254.544,73.633 253.027,76.064L185.894,195.412L121.316,138.01C119.837,136.802 117.984,136.142 116.074,136.142C113.208,136.142 110.538,137.628 109.027,140.064L52,241.446L52,35.299L62.344,45.643C63.845,47.157 65.892,48.01 68.024,48.01C72.412,48.01 76.023,44.399 76.023,40.01C76.023,37.878 75.171,35.831 73.656,34.33L49.662,10.335C46.55,7.242 41.45,7.242 38.338,10.335L14.344,34.33C12.866,35.826 12.036,37.847 12.036,39.95C12.036,44.339 15.647,47.95 20.036,47.95C22.139,47.95 24.159,47.12 25.656,45.642L36,35.299L36,367.986L20,367.986C15.611,367.986 12,371.597 12,375.986C12,380.375 15.611,383.986 20,383.986L36,383.986L36,399.986C36,404.375 39.611,407.986 44,407.986C48.389,407.986 52,404.375 52,399.986L52,383.986L404,383.986C404.001,383.986 404.001,383.986 404.002,383.986C408.39,383.986 412,380.376 412,375.988C412,375.988 412,375.987 412,375.986L412,15.986C411.894,11.644 408.292,8.129 403.948,8.129C401.112,8.129 398.478,9.627 397.027,12.064ZM108,367.986L52,367.986L52,274.082L108,174.526L108,367.986ZM180,367.986L124,367.986L124,161.8L180,211.578L180,367.986ZM252,367.986L196,367.986L196,210.082L252,110.526L252,367.986ZM324,367.986L268,367.986L268,97.8L324,147.578L324,367.986ZM396,367.986L340,367.986L340,146.082L396,46.526L396,367.986Z" style="fill:white;fill-rule:nonzero;"/>
        </g>
        <g transform="matrix(0.332036,0,0,0.332036,374.656,650.273)">
            <path d="M352,8L56,8C29.232,8.561 7.62,30.948 8,57.719L8,384C8.014,397.161 18.839,407.986 32,408L336,408C349.161,407.986 359.986,397.161 360,384L360,64L392,64C392.002,64 392.003,64 392.005,64C396.391,64 400,60.391 400,56.005C400,56.003 400,56.002 400,56C399.971,29.679 378.321,8.029 352,8ZM344,384C343.997,388.388 340.388,391.997 336,392L32,392C27.613,391.996 24.004,388.387 24,384L24,57.719C23.666,40.905 36.157,26.359 52.828,24.148C53.88,24.044 54.935,23.992 55.992,23.992C73.551,23.992 88,38.441 88,56C88,56 88,56.001 88,56.002C88,60.39 91.61,64 95.998,64C95.999,64 95.999,64 96,64L344,64L344,384ZM103.324,48C101.807,39.075 97.804,30.756 91.777,24L352,24C366.54,24.016 379.334,33.926 382.984,48L103.324,48Z" style="fill:white;fill-rule:nonzero;"/>
        </g>
        <g transform="matrix(0.332036,0,0,0.332036,374.656,650.273)">
            <path d="M264,352L104,352C99.611,352 96,355.611 96,360C96,364.389 99.611,368 104,368L264,368C268.389,368 272,364.389 272,360C272,355.611 268.389,352 264,352Z" style="fill:white;fill-rule:nonzero;"/>
        </g>
        <g transform="matrix(0.332036,0,0,0.332036,374.656,650.273)">
            <path d="M56,135.998L56,136.002C56,140.39 59.61,144 63.998,144C63.999,144 63.999,144 64,144L304,144C308.389,144 312,140.389 312,136C312,131.611 308.389,128 304,128L64,128C63.999,128 63.999,128 63.998,128C59.61,128 56,131.61 56,135.998Z" style="fill:white;fill-rule:nonzero;"/>
        </g>
        <g transform="matrix(0.332036,0,0,0.332036,374.656,650.273)">
            <path d="M120,104L248,104C252.389,104 256,100.389 256,96C256,91.611 252.389,88 248,88L120,88C115.611,88 112,91.611 112,96C112,100.389 115.611,104 120,104Z" style="fill:white;fill-rule:nonzero;"/>
        </g>
        <g transform="matrix(0.332036,0,0,0.332036,374.656,650.273)">
            <path d="M299.414,177.445L222.957,230.969L146.973,200.57C144.293,199.569 141.279,200.015 139.004,201.75L59.004,265.75C57.108,267.269 56.002,269.57 56,272L56,320C56,320.001 56,320.001 56,320.002C56,324.39 59.61,328 63.998,328C63.999,328 63.999,328 64,328L304,328C304.002,328 304.003,328 304.005,328C308.391,328 312,324.391 312,320.005C312,320.003 312,320.002 312,320L312,184C311.997,179.612 308.385,176.003 303.997,176.003C302.358,176.003 300.758,176.507 299.414,177.445ZM136,312L72,312L72,275.844L136,224.641L136,312ZM216,312L152,312L152,219.814L216,245.418L216,312ZM296,312L232,312L232,244.165L296,199.367L296,312Z" style="fill:rgb(91,50,154);fill-rule:nonzero;"/>
        </g>
    </g>
</svg>
